<svg xmlns="http://www.w3.org/2000/svg" width="25" height="25" viewBox="0 0 25 25">
  <g id="Agrupar_872" data-name="Agrupar 872" transform="translate(9503 -851)">
    <g id="Caminho_703" data-name="Caminho 703" transform="translate(-9503 851)" fill="none">
      <path d="M12.5,0A12.5,12.5,0,1,1,0,12.5,12.5,12.5,0,0,1,12.5,0Z" stroke="none"/>
      <path d="M 12.5 2 C 6.71027946472168 2 2 6.71027946472168 2 12.5 C 2 18.28972053527832 6.71027946472168 23 12.5 23 C 18.28972053527832 23 23 18.28972053527832 23 12.5 C 23 6.71027946472168 18.28972053527832 2 12.5 2 M 12.5 0 C 19.40356063842773 0 25 5.596439361572266 25 12.5 C 25 19.40356063842773 19.40356063842773 25 12.5 25 C 5.596439361572266 25 0 19.40356063842773 0 12.5 C 0 5.596439361572266 5.596439361572266 0 12.5 0 Z" stroke="none" fill="#fff"/>
    </g>
    <g id="Agrupar_871" data-name="Agrupar 871" transform="translate(136 -13)">
      <line id="Linha_121" data-name="Linha 121" x2="14" transform="translate(-9633.5 876.5)" fill="none" stroke="#fff" stroke-width="2"/>
      <line id="Linha_122" data-name="Linha 122" y2="14" transform="translate(-9626.5 869.5)" fill="none" stroke="#fff" stroke-width="2"/>
    </g>
  </g>
</svg>
