<svg xmlns="http://www.w3.org/2000/svg" width="68.337" height="69.101" viewBox="0 0 68.337 69.101">
  <g id="Agrupar_421" data-name="Agrupar 421" transform="translate(0 0)">
    <g id="Agrupar_420" data-name="Agrupar 420" transform="translate(11.572 16.401)">
      <path id="Caminho_132" data-name="Caminho 132" d="M-193.724,60.176h-6.555a1.249,1.249,0,0,0-1.25,1.25v6.556a1.25,1.25,0,0,0,1.25,1.25h6.555a1.251,1.251,0,0,0,1.25-1.25V61.426A1.25,1.25,0,0,0-193.724,60.176Zm-1.25,6.556h-4.055V62.676h4.055Z" transform="translate(201.529 -25.748)" fill="#fff"/>
      <path id="Caminho_133" data-name="Caminho 133" d="M-161.769,60.176h-6.556a1.25,1.25,0,0,0-1.25,1.25v6.556a1.251,1.251,0,0,0,1.25,1.25h6.556a1.251,1.251,0,0,0,1.25-1.25V61.426A1.25,1.25,0,0,0-161.769,60.176Zm-1.25,6.556h-4.056V62.676h4.056Z" transform="translate(196.205 -25.748)" fill="#fff"/>
      <path id="Caminho_134" data-name="Caminho 134" d="M-193.724,47.015h-6.555a1.25,1.25,0,0,0-1.25,1.25v6.557a1.25,1.25,0,0,0,1.25,1.25h6.555a1.251,1.251,0,0,0,1.25-1.25V48.265A1.251,1.251,0,0,0-193.724,47.015Zm-1.25,6.557h-4.055V49.515h4.055Z" transform="translate(201.529 -23.556)" fill="#fff"/>
      <path id="Caminho_135" data-name="Caminho 135" d="M-177.746,47.015H-184.3a1.251,1.251,0,0,0-1.25,1.25v6.557a1.251,1.251,0,0,0,1.25,1.25h6.555a1.251,1.251,0,0,0,1.25-1.25V48.265A1.251,1.251,0,0,0-177.746,47.015ZM-179,53.572h-4.055V49.515H-179Z" transform="translate(198.867 -23.556)" fill="#fff"/>
      <path id="Caminho_136" data-name="Caminho 136" d="M-161.769,47.015h-6.556a1.251,1.251,0,0,0-1.25,1.25v6.557a1.251,1.251,0,0,0,1.25,1.25h6.556a1.251,1.251,0,0,0,1.25-1.25V48.265A1.251,1.251,0,0,0-161.769,47.015Zm-1.25,6.557h-4.056V49.515h4.056Z" transform="translate(196.205 -23.556)" fill="#fff"/>
      <path id="Caminho_137" data-name="Caminho 137" d="M-193.724,34.1h-6.555a1.249,1.249,0,0,0-1.25,1.25V41.9a1.25,1.25,0,0,0,1.25,1.25h6.555a1.251,1.251,0,0,0,1.25-1.25V35.345A1.25,1.25,0,0,0-193.724,34.1Zm-1.25,6.556h-4.055V36.6h4.055Z" transform="translate(201.529 -21.403)" fill="#fff"/>
      <path id="Caminho_138" data-name="Caminho 138" d="M-177.746,34.1H-184.3a1.25,1.25,0,0,0-1.25,1.25V41.9a1.251,1.251,0,0,0,1.25,1.25h6.555a1.251,1.251,0,0,0,1.25-1.25V35.345A1.25,1.25,0,0,0-177.746,34.1ZM-179,40.651h-4.055V36.6H-179Z" transform="translate(198.867 -21.403)" fill="#fff"/>
      <path id="Caminho_139" data-name="Caminho 139" d="M-169.575,35.345V41.9a1.251,1.251,0,0,0,1.25,1.25h6.556a1.251,1.251,0,0,0,1.25-1.25V35.345a1.25,1.25,0,0,0-1.25-1.25h-6.556A1.25,1.25,0,0,0-169.575,35.345Zm2.5,1.25h4.056v4.056h-4.056Z" transform="translate(196.205 -21.403)" fill="#fff"/>
      <path id="Caminho_140" data-name="Caminho 140" d="M-171.088,26.671a7.816,7.816,0,0,0-7.806-7.806h-6.96a7.815,7.815,0,0,0-7.806,7.806,1.251,1.251,0,0,0,1.25,1.25h20.072A1.251,1.251,0,0,0-171.088,26.671Zm-19.923-1.25a5.316,5.316,0,0,1,5.158-4.056h6.96a5.315,5.315,0,0,1,5.157,4.056Z" transform="translate(200.218 -18.865)" fill="#fff"/>
    </g>
    <path id="Caminho_141" data-name="Caminho 141" d="M-148.328,65.785h-4.663V22.659h.768c.024,0,.046-.009.07-.011a1.282,1.282,0,0,0,.188-.028,2.279,2.279,0,0,0,1.569-.969l1.717-2.547a2.278,2.278,0,0,0,.35-1.716,2.277,2.277,0,0,0-.967-1.461L-173.159-.161a4.126,4.126,0,0,0-2.147-.654h-10.938c-.034,0-.065.008-.1.01a3.81,3.81,0,0,0-1.959.656l-23.568,16.1a2.274,2.274,0,0,0-.958,1.465,2.271,2.271,0,0,0,.36,1.714l1.732,2.536a2.276,2.276,0,0,0,1.467.959,2.326,2.326,0,0,0,.428.04,2.265,2.265,0,0,0,.681-.106V65.785h-6.005a1.251,1.251,0,0,0-1.25,1.25,1.251,1.251,0,0,0,1.25,1.25h65.837a1.251,1.251,0,0,0,1.25-1.25A1.251,1.251,0,0,0-148.328,65.785Zm-4.077-45.626h-7.832l.711-1.055a2.426,2.426,0,0,0,.139-.258h7.867ZM-175.3,1.685a1.6,1.6,0,0,1,.743.227l21.41,14.433h-6.542a2.244,2.244,0,0,0-.453-.418L-181.268,1.685ZM-208.67,20.254h0Zm-.12-.175-1.493-2.187,23.392-15.977a1.319,1.319,0,0,1,.729-.23h.026a1.318,1.318,0,0,1,.732.227l23.687,15.969-1.48,2.2L-185.437,5.083a1.25,1.25,0,0,0-1.4,0Zm27.057,45.573h-8.535V52.323h8.535Zm15.393.123h-12.893v-14.7a1.251,1.251,0,0,0-1.25-1.25h-11.036a1.25,1.25,0,0,0-1.25,1.25v14.7H-205.66V20.968l19.528-13.337,19.792,13.343Zm10.848.009h-8.348V22.539a2.282,2.282,0,0,0,.7.119h7.648Z" transform="translate(215.415 0.816)" fill="#fff"/>
  </g>
</svg>
