<svg xmlns="http://www.w3.org/2000/svg" width="11.032" height="11.032" viewBox="0 0 11.032 11.032"><defs><style>.a{fill:none;}.b{fill:#dcdcdc;}</style></defs><g transform="translate(0 0)"><path class="a" d="M0,0H11.032V11.032H0Z"/><path class="b" d="M7.9,7.758A1.379,1.379,0,1,0,6.516,6.379,1.373,1.373,0,0,0,7.9,7.758Zm-3.677,0A1.379,1.379,0,1,0,2.839,6.379,1.373,1.373,0,0,0,4.218,7.758Zm0,.919C3.147,8.677,1,9.215,1,10.286v1.149H7.436V10.286C7.436,9.215,5.289,8.677,4.218,8.677Zm3.677,0c-.133,0-.285.009-.446.023a1.94,1.94,0,0,1,.906,1.586v1.149h2.758V10.286C11.113,9.215,8.966,8.677,7.9,8.677Z" transform="translate(-0.54 -2.702)"/></g></svg>