<svg xmlns="http://www.w3.org/2000/svg" width="217.112" height="48.104" viewBox="0 0 217.112 48.104">
  <g id="Agrupar_867" data-name="Agrupar 867" transform="translate(14215.179 -7686.896)">
    <g id="Agrupar_866" data-name="Agrupar 866" transform="translate(-14215.179 7686.896)">
      <g id="Agrupar_851" data-name="Agrupar 851" transform="translate(112.862 0.069)">
        <g id="Agrupar_849" data-name="Agrupar 849">
          <path id="Caminho_687" data-name="Caminho 687" d="M847.874,414.5A23.887,23.887,0,1,1,824,438.387,23.89,23.89,0,0,1,847.874,414.5Z" transform="translate(-824 -414.5)" fill="#2c4077" fill-rule="evenodd"/>
          <path id="Caminho_688" data-name="Caminho 688" d="M877.141,542.1a7.346,7.346,0,0,1,7.136,5.616L881.319,549h0l-3.027,1.329-7.259,3.178a7.339,7.339,0,0,1,6.109-11.409Zm3.15,4.561-7.328,3.164a3.594,3.594,0,0,1-.014-.383,4.206,4.206,0,0,1,4.2-4.2,4.253,4.253,0,0,1,3.137,1.424Z" transform="translate(-863.527 -524.623)" fill="#fff" fill-rule="evenodd"/>
          <path id="Caminho_689" data-name="Caminho 689" d="M903.163,619.846a7.294,7.294,0,0,1-9.163.89l1.726-2.63a4.267,4.267,0,0,0,5.232-.507l2.205,2.246Z" transform="translate(-884.412 -589.782)" fill="#fff" fill-rule="evenodd"/>
          <path id="Caminho_690" data-name="Caminho 690" d="M982.614,533.375,982.6,519.5h2.63v13.491a.283.283,0,0,0,.192.315l2.287.89-1.027,2.685L984,535.744a2.131,2.131,0,0,1-1.383-2.37Z" transform="translate(-960.877 -505.118)" fill="#fff" fill-rule="evenodd"/>
        </g>
        <g id="Agrupar_850" data-name="Agrupar 850" transform="translate(26.818 17.326)">
          <path id="Caminho_691" data-name="Caminho 691" d="M1024.621,561.795a4.167,4.167,0,0,1-1.616-3.3,4.23,4.23,0,0,1,1.3-3.041l-1.7-2.753a7.381,7.381,0,0,0,.411,11.889Z" transform="translate(-1019.8 -551.098)" fill="#009dd7" fill-rule="evenodd"/>
          <path id="Caminho_692" data-name="Caminho 692" d="M1054.77,544.438a4.022,4.022,0,0,1,1.411-.247,4.171,4.171,0,0,1,3.917,2.712l3.26-.274a7.378,7.378,0,0,0-7.177-5.629,7.242,7.242,0,0,0-2.781.548Z" transform="translate(-1048.798 -541)" fill="#fff200" fill-rule="evenodd"/>
          <path id="Caminho_693" data-name="Caminho 693" d="M1063.565,596.4a4.194,4.194,0,0,1-4.177,3.986,4.032,4.032,0,0,1-1.014-.123l-1.274,2.958a7.5,7.5,0,0,0,2.3.37,7.4,7.4,0,0,0,7.383-7.081Z" transform="translate(-1051.991 -588.812)" fill="#e33206" fill-rule="evenodd"/>
        </g>
      </g>
      <g id="Agrupar_854" data-name="Agrupar 854" transform="translate(56.568 0.329)">
        <path id="Caminho_694" data-name="Caminho 694" d="M436.887.5A23.887,23.887,0,1,1,413,24.387,23.89,23.89,0,0,1,436.887.5Z" transform="translate(-413 -0.5)" fill="#12a1dd" fill-rule="evenodd"/>
        <g id="Agrupar_853" data-name="Agrupar 853" transform="translate(9.629 15.094)">
          <g id="Agrupar_852" data-name="Agrupar 852">
            <path id="Caminho_695" data-name="Caminho 695" d="M494.2,119.493a8.734,8.734,0,0,1,3.342-6.889,8.792,8.792,0,1,0-.014,13.765A8.736,8.736,0,0,1,494.2,119.493Z" transform="translate(-483.3 -110.7)" fill="#e20d17"/>
            <path id="Caminho_696" data-name="Caminho 696" d="M562.9,131.489a8.734,8.734,0,0,0,3.342,6.889,8.772,8.772,0,0,0,0-13.779A8.734,8.734,0,0,0,562.9,131.489Z" transform="translate(-551.997 -122.696)" fill="#ea610a"/>
            <path id="Caminho_697" data-name="Caminho 697" d="M686.11,207.529v-.26H686V207.2h.288v.068h-.11v.26Zm.562,0V207.3l-.068.192h-.082l-.069-.192v.233h-.082V207.2h.11l.082.205.082-.205h.11v.329Z" transform="translate(-658.237 -193.983)" fill="#f59e00"/>
            <path id="Caminho_698" data-name="Caminho 698" d="M592.651,110.7a8.726,8.726,0,0,0-5.451,1.9,8.772,8.772,0,0,1,0,13.779,8.79,8.79,0,1,0,5.451-15.683Z" transform="translate(-572.969 -110.7)" fill="#f59e00"/>
          </g>
        </g>
      </g>
      <g id="Agrupar_855" data-name="Agrupar 855" transform="translate(169.338 0.26)">
        <path id="Caminho_699" data-name="Caminho 699" d="M849.387,0A23.887,23.887,0,1,1,825.5,23.887,23.89,23.89,0,0,1,849.387,0Z" transform="translate(-825.5)" fill="#005b83" fill-rule="evenodd"/>
        <path id="hipercard_1_" d="M888.972,149.1c.164-.123.383-.644.137-.877a.445.445,0,0,0-.4-.055.488.488,0,0,0-.342.178c-.11.151-.205.589-.041.753A.668.668,0,0,0,888.972,149.1Zm-2.411-.877c-.123.794-.26,1.561-.4,2.328-.877.014-1.781.041-2.63-.014.164-.753.274-1.561.438-2.315h-.945c-.342,1.931-.644,3.89-1.027,5.78h.972c.151-.972.288-1.945.493-2.863.822-.014,1.822-.055,2.616.014-.164.959-.356,1.876-.521,2.849h.972c.315-1.959.644-3.89,1.027-5.78h-1Zm13.7,1.657a1.294,1.294,0,0,0-1.616.7c.068-.219.082-.466.137-.7h-.753c-.178,1.424-.452,2.767-.712,4.109h.849a15.449,15.449,0,0,1,.438-2.643,1.18,1.18,0,0,1,1.562-.849C900.176,150.278,900.244,150.1,900.258,149.881Zm.479,3.15a2.121,2.121,0,0,1-.082-.794,2.629,2.629,0,0,1,.575-1.575,2.1,2.1,0,0,1,2.013-.123c.027-.233.069-.452.1-.671a3.2,3.2,0,0,0-2.808.534,3.392,3.392,0,0,0-.671,2.808c.3,1,1.671,1.055,2.794.671.055-.205.068-.425.123-.63C902.162,153.565,901.011,153.729,900.737,153.031Zm9.547-3.123a1.3,1.3,0,0,0-1.616.63c.068-.192.068-.452.137-.657h-.753c-.205,1.411-.452,2.78-.726,4.109h.877a8.926,8.926,0,0,1,.192-1.479c.178-1.137.452-2.4,1.781-2.013C910.215,150.305,910.229,150.086,910.284,149.908Zm-22.189-.027c-.027,0-.027.027-.014.055-.192,1.4-.438,2.739-.712,4.054h.849c.205-1.411.438-2.794.726-4.109Zm7.478-.068a2.164,2.164,0,0,0-1.507.616,3.437,3.437,0,0,0-.712,2.493c.151,1.37,1.863,1.315,3.219.986.027-.247.082-.452.123-.671-.562.205-1.534.507-2.109.137-.438-.274-.438-.972-.3-1.575.918-.027,1.876-.027,2.794,0a3.121,3.121,0,0,0,.082-1.329C896.971,149.894,896.272,149.757,895.573,149.812Zm.808,1.493h-2a1.179,1.179,0,0,1,1.123-.986C896.135,150.292,896.573,150.538,896.382,151.305Zm-4.027-1.424a2.229,2.229,0,0,0-1.972.356.013.013,0,0,1-.014.014l.014-.014h0c0-.137.055-.219.055-.356h-.726c-.3,2.027-.671,4-1.055,5.958h.849c.123-.753.205-1.561.37-2.274.192.753,1.466.6,2,.315C892.985,153.277,893.834,150.442,892.355,149.881Zm-.671,3.342c-.452.479-1.575.479-1.657-.342a3.7,3.7,0,0,1,.164-1.082c.068-.37.11-.726.178-1.055.452-.548,1.767-.616,1.9.3A3.148,3.148,0,0,1,891.684,153.223Zm21.764-5.123a14.664,14.664,0,0,1-.3,1.835c-2.082-.657-3.369.877-3.342,2.767a1.438,1.438,0,0,0,.3.986,1.922,1.922,0,0,0,2.1.178,1.569,1.569,0,0,0,.3-.3c.055-.068.137-.247.164-.192-.027.205-.068.384-.082.616h.767a53.465,53.465,0,0,1,.945-5.89Zm-1.89,5.438c-.575.014-.863-.342-.877-.931-.027-1.027.425-2.178,1.342-2.274a2.314,2.314,0,0,1,1.055.164C912.79,151.647,912.886,153.51,911.558,153.538Zm-7.341-3.657c-.041.233-.11.452-.164.671.507-.123,2.068-.507,2.219.164a1.181,1.181,0,0,1-.1.63c-1.411-.137-2.561.1-2.863,1.109a1.249,1.249,0,0,0,.452,1.52,1.882,1.882,0,0,0,2.192-.616,2.3,2.3,0,0,0-.055.63h.726a11.9,11.9,0,0,1,.219-1.9,7.191,7.191,0,0,0,.233-1.548C907.024,149.47,905.216,149.853,904.216,149.881Zm1.383,3.328c-.438.425-1.671.548-1.548-.479.109-.849,1.027-1.027,2.041-.9A2.522,2.522,0,0,1,905.6,153.209Z" transform="translate(-874.261 -127.815)" fill="#fff" fill-rule="evenodd"/>
      </g>
      <g id="Agrupar_857" data-name="Agrupar 857">
        <path id="Caminho_700" data-name="Caminho 700" d="M23.887,414A23.887,23.887,0,1,1,0,437.887,23.89,23.89,0,0,1,23.887,414Z" transform="translate(0 -414)" fill="#0091c0" fill-rule="evenodd"/>
        <g id="Agrupar_856" data-name="Agrupar 856" transform="translate(8.191 18.943)">
          <path id="Caminho_701" data-name="Caminho 701" d="M96.022,552.3c-2.452,0-4.164,1.3-4.178,3.164-.014,1.383,1.233,2.15,2.164,2.6.972.466,1.288.767,1.288,1.192-.014.644-.767.931-1.479.931a4.973,4.973,0,0,1-2.328-.507l-.315-.151-.342,2.15a7.64,7.64,0,0,0,2.753.507c2.6,0,4.287-1.287,4.3-3.274.014-1.1-.657-1.918-2.082-2.6-.863-.438-1.4-.74-1.383-1.192,0-.4.452-.822,1.424-.822a4.355,4.355,0,0,1,1.849.37l.219.109.342-2.082a6.394,6.394,0,0,0-2.233-.4Zm-7.684.164-1.548,9.588H89.27l1.548-9.588Zm-3.63.014-2.424,6.533-.26-1.329a7.393,7.393,0,0,0-3.424-4.027l2.219,8.383h2.616l3.89-9.56Zm17.957,0a1.225,1.225,0,0,0-1.3.794l-3.671,8.78h2.6s.425-1.178.52-1.438h3.164c.082.329.3,1.438.3,1.438h2.3l-2-9.574Zm.178,2.575.164.822s.479,2.287.575,2.767h-2.055c.205-.548.986-2.685.986-2.685-.014.041.205-.534.329-.9Z" transform="translate(-76.025 -552.3)" fill="#fff"/>
          <path id="Caminho_702" data-name="Caminho 702" d="M63.813,553.5H59.827l-.027.164a8.3,8.3,0,0,1,6,5.041l-.863-4.41a1.055,1.055,0,0,0-1.123-.794" transform="translate(-59.8 -553.336)" fill="#ffab00"/>
        </g>
      </g>
    </g>
  </g>
</svg>
