<svg id="Group_159" data-name="Group 159" xmlns="http://www.w3.org/2000/svg" width="99.694" height="99.694" viewBox="0 0 99.694 99.694">
  <g id="Group_160" data-name="Group 160" transform="translate(0 0)">
    <path id="Path_62" data-name="Path 62" d="M55.847,169.694A49.831,49.831,0,1,1,91.1,155.1,49.528,49.528,0,0,1,55.847,169.694Zm0-96.5A46.657,46.657,0,1,0,102.5,119.847,46.717,46.717,0,0,0,55.847,73.19Z" transform="translate(-6 -70)" fill="#fff"/>
    <g id="Group_158" data-name="Group 158" transform="translate(26.822 24.418)">
      <path id="Path_63" data-name="Path 63" d="M165.4,369.866v-.2h.214v.268l1.644.519.186-1.118-2.373-1.391-2.062-1.1-.055.023a.192.192,0,0,0-.123.094.422.422,0,0,1-.141.131.38.38,0,0,1-.132.044l-.031.031-.151-.151c.043-.043.072-.073.091-.092a.3.3,0,0,1,.05-.053l.08-.058.041.048.024-.03a.5.5,0,0,1,.11-.112l-.588-.314-.187-.187v3.633l3.351,0Z" transform="translate(-157.718 -331.569)" fill="#fff"/>
      <path id="Path_64" data-name="Path 64" d="M162.92,353.5v-.8h.214v.859a.434.434,0,0,1,.007.061l2.038,1.087,2.479,1.453.027,0,0,.01,3.038,1.781-.108.184-2.968-1.74-.178,1.068,3.286,1.038a2.2,2.2,0,0,1,.246-.98l-.287.075-.054-.207.192-.051-.164-.15-.217.126-.107-.185.159-.092-.205-.187-.075.149-.191-.1.1-.2-.906-.825-.5.6-.164-.137.509-.611-3.457-3.149-1.8-1.993L162,349.908v2.948l.328.328Zm.559-2.955,1.35,1.891-.174.124-1.35-1.891Z" transform="translate(-157.718 -318.516)" fill="#fff"/>
      <path id="Path_65" data-name="Path 65" d="M199.022,375.661l1.333,1.213.53-.307-1.164-1.745Z" transform="translate(-187.358 -338.463)" fill="#fff"/>
      <path id="Path_66" data-name="Path 66" d="M178.147,389.764l0-.012a.093.093,0,0,0-.031,0Z" transform="translate(-170.623 -350.415)" fill="#fff"/>
      <path id="Path_67" data-name="Path 67" d="M179.627,401.847l-.585-1.125.113.487-.208.048-.138-.6-4.148,2.489-2.043,3.234h.321l1.174-1.174.152.151-1.023,1.023h4.567l.682-2.388ZM175.637,406l-.2-.082L177.06,402l.2.082Zm2.3-.176h-.214v-2.3h.214Z" transform="translate(-166.218 -359.149)" fill="#fff"/>
      <path id="Path_68" data-name="Path 68" d="M167.384,398.581a.213.213,0,0,1-.035-.143,1.54,1.54,0,0,0-.035-.363l.21-.042a1.773,1.773,0,0,1,.039.392h.047v.021l1.429-.858-.045-.011-.382-.191.1-.191.356.178.028,0a.309.309,0,0,1,.188.016.152.152,0,0,1,.036.036l.94-.564-.11-.479-.1-.195-5.448.351-2.6,2.252V402.8h1.865l2.163-3.4Zm-2.424-.461a1.245,1.245,0,0,1-.281.132.45.45,0,0,1-.189,0,.281.281,0,0,0-.1,0,.884.884,0,0,0-.094.174.633.633,0,0,1-.034.068,3.1,3.1,0,0,1-.519.609.377.377,0,0,1-.132.044l-.031.031c-.013.013-.028.026-.044.038l-.019.015a.142.142,0,0,1-.033.137.124.124,0,0,1-.054.032.17.17,0,0,1-.042.159.177.177,0,0,1-.131.051.433.433,0,0,1-.091-.012.287.287,0,0,0-.045-.008v-.214a.405.405,0,0,1,.086.012.206.206,0,0,1,.01-.143.118.118,0,0,1,.084-.065.142.142,0,0,1,.011-.031.3.3,0,0,1,.089-.1.325.325,0,0,0,.026-.023l.091-.093a.3.3,0,0,1,.05-.053l.08-.058.043.05a4.884,4.884,0,0,0,.392-.5l.017-.037c.063-.139.129-.267.236-.294a.463.463,0,0,1,.18,0,.309.309,0,0,0,.1,0,1.08,1.08,0,0,0,.232-.111c.043-.025.087-.05.131-.072l.1.191C165.04,398.075,165,398.1,164.961,398.121Z" transform="translate(-157.718 -355.565)" fill="#fff"/>
      <path id="Path_69" data-name="Path 69" d="M169.937,387.428l-.158-.3.19-.1.167.321.112-.026.02.085.2-.013.014.214-.165.011.032.139.2.379.256-.154.11.183-.268.161.6,1.16.372-.7a2.256,2.256,0,0,1-.859-1.66l-.031.1-3.3-1.042-.017.1-.211-.035.022-.134-1.608-.508v.176a.714.714,0,0,0,.007.084.478.478,0,0,1-.015.242.368.368,0,0,1-.137.154.534.534,0,0,0-.047.037.158.158,0,0,1-.011.1.434.434,0,0,1-.085.126c0,.006,0,.012,0,.018h-.023a.132.132,0,0,1-.061.021l-.061,0-.021-.025h-.048c0-.044,0-.068,0-.08l.073-.118.011,0,.014-.024a.158.158,0,0,1,.017-.127.45.45,0,0,1,.115-.11.225.225,0,0,0,.066-.062.313.313,0,0,0,0-.137.931.931,0,0,1-.009-.11v-.243l-.1-.032H162v4.449l2.512-2.177Z" transform="translate(-157.718 -347.017)" fill="#fff"/>
      <path id="Path_70" data-name="Path 70" d="M163.285,296.349h.214v1.35h-.185l2.858,2.342,3.028,4.542h0l.02-.005a.123.123,0,0,1,.035-.064.126.126,0,0,1,.064-.035.135.135,0,0,1,.011-.033.558.558,0,0,1,.288-.217l.046-.022.1.191-.055.026a.6.6,0,0,0-.171.1.144.144,0,0,1-.032.141.125.125,0,0,1-.062.034.121.121,0,0,1-.034.061.117.117,0,0,1-.068.03l2.092,3.138.475-.275-2.39-8-4.278-7.6-2.371-1.9-.865-.935v7.4l1.285,1.053Zm7.123,6.375.014.214-2.026.135-.014-.214Z" transform="translate(-157.718 -269.93)" fill="#fff"/>
      <path id="Path_71" data-name="Path 71" d="M223.942,404.793l1.007-.819-1.565-2.906a2.409,2.409,0,0,1-.8.537l.453,1.064h.068v.161Z" transform="translate(-206.221 -359.475)" fill="#fff"/>
      <path id="Path_72" data-name="Path 72" d="M209.146,382.634a2.212,2.212,0,0,0-1.651.737l.969-.255.076-.084.108.036.573-.151.054.207-.257.068,1.209.4-.068.2-1.518-.507-.06.016-1.032,1.146.413.756h.747v.214h-.945v-.131l-.433-.794v.953h-.214v-1.346l-.028-.051a1.983,1.983,0,0,0-.125.669,2.011,2.011,0,0,0,.415,1.215l.018-.048,1.081.405-.075.2-.8-.3c.044.043.1.077.145.116l.16.085-.015.029a2.219,2.219,0,0,0,.768.329v-.031l.214.008,0,.053a2.268,2.268,0,0,0,.277.027,2.21,2.21,0,0,0,1.7-.8l-1.555.479-.131.1-.54-.675.167-.134.439.548-.013-.043,1.756-.54.022.072a2.013,2.013,0,0,0,.3-.757l-.134-.188.167-.119c0-.013,0-.025,0-.038a2,2,0,0,0-.038-.364l-.111.067-.19-.316-.7,1.521-.194-.09.763-1.654-.559-.931A2.238,2.238,0,0,0,209.146,382.634Z" transform="translate(-193.714 -344.717)" fill="#fff"/>
      <path id="Path_73" data-name="Path 73" d="M226.208,386.337l.4.673A2.055,2.055,0,0,0,226.208,386.337Z" transform="translate(-209.123 -347.681)" fill="#fff"/>
      <path id="Path_74" data-name="Path 74" d="M204.908,406.932l-.135-.166.738-.6-.877-2.046H203.06l-.138,3.574-.048,0,.028.041-.175.123-.945-1.35.175-.123.76,1.086.129-3.348h-.707v-.214h.715l.036-.935a2.437,2.437,0,0,1-.861-.357l-.423.8.357.687-.189.1-.289-.556-1.058,2-.657,2.308h5.994v-1.19l-.166-.387Z" transform="translate(-187.957 -360.713)" fill="#fff"/>
      <path id="Path_75" data-name="Path 75" d="M216.631,404.187a2.442,2.442,0,0,1-.285-.028l-.035.911h1.474l-.429-1A2.454,2.454,0,0,1,216.631,404.187Z" transform="translate(-201.2 -361.877)" fill="#fff"/>
      <path id="Path_76" data-name="Path 76" d="M209.138,386.5l-.92.242c-.032.051-.061.1-.089.156l.245.45Z" transform="translate(-194.649 -347.814)" fill="#fff"/>
      <path id="Path_77" data-name="Path 77" d="M206.537,383.342l.217.2.049-.013a2.374,2.374,0,0,1,.843-.743l-.021-.071Z" transform="translate(-193.374 -344.78)" fill="#fff"/>
      <path id="Path_78" data-name="Path 78" d="M227.784,396.007a2.246,2.246,0,0,1-.432.835l.577,1.072.336-1.233Z" transform="translate(-210.039 -355.423)" fill="#fff"/>
      <path id="Path_79" data-name="Path 79" d="M165.78,334.673l3.443,3.135.7-.845.118.1-.92-1.38a.352.352,0,0,1-.049.024l-.019.005a.123.123,0,0,1-.035.065.144.144,0,0,1-.14.033.636.636,0,0,0-.073.1c-.054.083-.151.231-.309.231a.345.345,0,0,1-.185-.061l.115-.181c.077.049.1.046.2-.107a.487.487,0,0,1,.173-.185.122.122,0,0,1,.033-.012.124.124,0,0,1,.035-.064.133.133,0,0,1,.129-.034l-2.073-3.109.476.953-.191.1-.945-1.891.074-.037L166,331l-4-3.275v4.2l1.966.748Z" transform="translate(-157.718 -300.754)" fill="#fff"/>
      <rect id="Rectangle_57" data-name="Rectangle 57" width="1.371" height="43.642" transform="translate(21.676 3.487)" fill="#fff"/>
      <path id="Path_80" data-name="Path 80" d="M216.917,371.792a.093.093,0,0,0-.015.049h.018Z" transform="translate(-201.673 -336.037)" fill="#fff"/>
      <path id="Path_81" data-name="Path 81" d="M162,225.136l1.01,1.094,2.4,1.93,4.3,7.64,2.385,7.972.833-.482.107.185-.877.508.024.08a2.463,2.463,0,0,1,.968-.2c.018,0,.034,0,.051,0l-.5-1.8h-.412v-.214h.353l-.63-2.268h-.677v-.214h.618l-1.58-5.69-2.1-6.489-.386-2.307.211-.035.382,2.292,2.1,6.478.236.849.1-.051.945,1.891-.191.1-.717-1.434,1.912,6.884h.094a.17.17,0,0,1,.157.012l.041.032,0,.115-.046.043a.125.125,0,0,1-.078.026.276.276,0,0,1-.066-.01v0h-.047l.505,1.818a2.464,2.464,0,0,1,.664.16l-.529-.882.183-.11.3.5,1.869-7.662.046-.049-.99-.33.068-.2,1.082.361,1.932-2.093h-1.338v-7.027h1.607V209.569H162Zm12.1,14.811h.668v.214H174.1Z" transform="translate(-157.718 -206.159)" fill="#fff"/>
      <rect id="Rectangle_58" data-name="Rectangle 58" width="0.443" height="4.888" transform="translate(20.068 21.463)" fill="#fff"/>
      <path id="Path_82" data-name="Path 82" d="M261.471,226.566h1.689v7.027h-1.689v19.8h17.775V209.569H261.471Z" transform="translate(-237.356 -206.159)" fill="#fff"/>
      <path id="Path_83" data-name="Path 83" d="M186.037,192.466h-44.98a.535.535,0,0,0-.535.535v49.788a.535.535,0,0,0,.535.535h44.98a.535.535,0,0,0,.535-.535V193A.535.535,0,0,0,186.037,192.466Zm-2.554,47.769a.535.535,0,0,1-.535.535H144.27a.535.535,0,0,1-.535-.535V195.341a.535.535,0,0,1,.535-.535h38.678a.535.535,0,0,1,.535.535Z" transform="translate(-140.522 -192.466)" fill="#fff"/>
      <rect id="Rectangle_59" data-name="Rectangle 59" width="0.443" height="4.888" transform="translate(24.293 21.477)" fill="#fff"/>
      <path id="Path_84" data-name="Path 84" d="M226.027,332.493l-.068.2-.813-.271-.074.08-1.9,7.8-.015,0,.263.439a2.394,2.394,0,0,1,.286.218l1.159-1.622h-.652v-.214h.771v.048l1.452-2.033.851-.365v-6.668l-1.979,2.144Zm-.849,5.307h-.214v-.031c0-.191,0-.191-.187-.393l-.071-.077.157-.145.071.076c.227.245.244.27.244.538Zm1.981-3.926-1.621,2.161-.171-.128,1.621-2.161Z" transform="translate(-206.678 -302.665)" fill="#fff"/>
      <path id="Path_85" data-name="Path 85" d="M228.448,366.376c.223.24.241.267.241.534v.031h-.214v-.031c0-.176-.006-.2-.154-.356l-1.616,2.262a2.3,2.3,0,0,1,.413.587l.7-.082-.024-.1.135-.033a3.593,3.593,0,0,0,.519-.153.553.553,0,0,0,.073-.038.694.694,0,0,1,.124-.06.179.179,0,0,1,.093,0,.4.4,0,0,0,.037-.049.313.313,0,0,1,.156-.138.41.41,0,0,1,.171-.009.484.484,0,0,0,.053,0v.214a.739.739,0,0,1-.075-.005.243.243,0,0,0-.082,0c-.011,0-.033.035-.047.056a.358.358,0,0,1-.13.129.186.186,0,0,1-.117.01.338.338,0,0,0-.077.037.807.807,0,0,1-.1.051l-.007,0,.793-.093.119-.136.122.107.574-.068v-4.333l-.712.305Z" transform="translate(-209.521 -330.372)" fill="#fff"/>
      <path id="Path_86" data-name="Path 86" d="M232.81,402.979l-.047.031L232,401.865l-.967-1.354-.32,1.171-.105-.029.936,1.738.079-.064.135.166-.111.09.233.432,1.372.654v-2.548l-.243.911Z" transform="translate(-212.646 -359.029)" fill="#fff"/>
      <path id="Path_87" data-name="Path 87" d="M230.65,388.495l-.161-.141.616-.7-1.9.223c.023.061.043.123.061.187l2.429,1.214-.1.191-2.279-1.14a1.447,1.447,0,0,1,0,.6l.613.858.059.016-.013.048,1.07,1.5.683,1.024.394-1.477v-3.368l-.709.083Z" transform="translate(-211.525 -348.636)" fill="#fff"/>
      <path id="Path_88" data-name="Path 88" d="M230.861,416.607l-1.023.832.213.5v1.212h2.585v-1.358l-1.528-.728Z" transform="translate(-212.029 -371.916)" fill="#fff"/>
    </g>
  </g>
</svg>
