<svg xmlns="http://www.w3.org/2000/svg" width="45.713" height="45.713" viewBox="0 0 45.713 45.713">
  <g id="Agrupar_864" data-name="Agrupar 864" transform="translate(14851 -7673.844)">
    <g id="Agrupar_570" data-name="Agrupar 570" transform="translate(-14851 7673.844)">
      <path id="Caminho_84" data-name="Caminho 84" d="M22.856,0A22.856,22.856,0,1,0,45.713,22.856,22.816,22.816,0,0,0,22.856,0m0,3.228A19.628,19.628,0,1,1,3.228,22.856,19.619,19.619,0,0,1,22.856,3.228" fill="#fff"/>
    </g>
    <path id="Caminho_219" data-name="Caminho 219" d="M24.622,20.642H21.006V33.685H15.583V20.642H13V15.994h2.583v-2.97c0-2.2,1.033-5.424,5.424-5.424h4v4.52h-2.97c-.517,0-1.162.258-1.162,1.291v2.712h4.132Z" transform="translate(-14847.213 7676.058)" fill="#fff"/>
  </g>
</svg>
