<svg id="Grupo_108" data-name="Grupo 108" xmlns="http://www.w3.org/2000/svg" width="50.77" height="40.993" viewBox="0 0 50.77 40.993">
  <path id="Caminho_14" data-name="Caminho 14" d="M46.424,11H14.734a5.781,5.781,0,0,0-5.781,5.729l-.21,22.283H3.276A1.577,1.577,0,0,0,1.7,40.589v3.837a7.515,7.515,0,0,0,7.253,7.568H36.071a7.515,7.515,0,0,0,7.515-7.515h0V25.61h7.305a1.577,1.577,0,0,0,1.577-1.577v-6.99A6.044,6.044,0,0,0,46.424,11ZM9.215,48.84a4.362,4.362,0,0,1-4.362-4.362h0V42.165H28.5v2.26a7.462,7.462,0,0,0,1.419,4.415Zm31.165-4.362a4.388,4.388,0,0,1-8.777,0V40.589a1.577,1.577,0,0,0-1.577-1.577H11.9l.21-22.231a2.628,2.628,0,0,1,2.628-2.628H41.169a5.993,5.993,0,0,0-.736,2.891Zm8.934-22.021H43.586V17.044a2.891,2.891,0,1,1,5.729,0Z" transform="translate(-1.7 -11)" fill="#fdc300"/>
  <rect id="Retângulo_36" data-name="Retângulo 36" width="11.299" height="3.153" transform="translate(13.77 8.777)" fill="#fdc300"/>
  <rect id="Retângulo_37" data-name="Retângulo 37" width="20.759" height="3.153" transform="translate(13.77 15.083)" fill="#fdc300"/>
  <rect id="Retângulo_38" data-name="Retângulo 38" width="20.759" height="3.153" transform="translate(13.77 21.39)" fill="#fdc300"/>
</svg>
