<?xml version="1.0" encoding="utf-8"?>
<!-- Generator: Adobe Illustrator 23.0.2, SVG Export Plug-In . SVG Version: 6.00 Build 0)  -->
<svg version="1.1" id="Camada_1" xmlns="http://www.w3.org/2000/svg" xmlns:xlink="http://www.w3.org/1999/xlink" x="0px" y="0px"
	 viewBox="0 0 519.5 105.3" style="enable-background:new 0 0 519.5 105.3;" xml:space="preserve">
<style type="text/css">
	.st0{fill-rule:evenodd;clip-rule:evenodd;fill:#FFFFFF;}
	.st1{fill:none;stroke:#FFFFFF;stroke-width:2;}
	.st2{enable-background:new    ;}
	.st3{fill:#FFFFFF;}
	.st4{fill:#FDC300;}
</style>
<g id="Agrupar_132" transform="translate(559.867 6634.451)">
	<path id="Caminho_3" class="st0" d="M-545.6-6621.2c7.9,0,14.2,6.4,14.2,14.2s-6.4,14.2-14.2,14.2c-7.9,0-14.2-6.4-14.2-14.2l0,0
		C-559.9-6614.8-553.5-6621.2-545.6-6621.2z M-545.6-6619.8c-7.1,0-12.9,5.8-12.9,12.9s5.8,12.9,12.9,12.9c7.1,0,12.9-5.8,12.9-12.9
		S-538.5-6619.8-545.6-6619.8L-545.6-6619.8z"/>
	<path id="Caminho_4" class="st0" d="M-544.9-6604.1v4.4h-1.4v-4.4c-0.7,0-1.5,0-1.9,0l-4.6,0c-1.2,0.1-2.2-0.8-2.2-2
		c0-0.1,0-0.1,0-0.2c0-0.1,0-0.2,0-0.3c0.3-1.9,1.3-3.6,2.8-4.9c0.5-0.4,1.2-0.5,1.8-0.4c0.2-0.6,0.6-1.1,1.1-1.4
		c0.1-0.1,0.2-0.1,0.3-0.1c2.2-0.8,4.6-0.8,6.7,0c0.6,0.3,1.1,0.8,1.4,1.5c0.6-0.1,1.2,0,1.7,0.4c0.8,0.6,1.4,1.4,2,2.3
		c0.5,0.8,0.8,1.7,1,2.7c0,0.1,0,0.2,0,0.3c0,1.2-0.9,2.1-2,2.2c-0.1,0-0.1,0-0.2,0l-4.6,0C-543.4-6604.2-544.3-6604.2-544.9-6604.1
		L-544.9-6604.1z M-540-6610.5c-0.3-0.2-0.8-0.2-1,0.1c0,0-0.1,0.1-0.1,0.1l-2.3,4.1c-0.1,0.2-0.1,0.4,0.1,0.5
		c0.1,0,0.1,0.1,0.2,0.1l4.7,0c0.1,0,0.3,0,0.4-0.1c0.2-0.1,0.4-0.4,0.4-0.7c0,0,0,0,0-0.1C-537.9-6608-538.7-6609.4-540-6610.5
		L-540-6610.5L-540-6610.5z M-551.3-6610.5L-551.3-6610.5c-1.3,1.1-2.1,2.5-2.4,4.1c0,0,0,0,0,0.1c0,0.4,0.3,0.7,0.6,0.8
		c0,0,0.1,0,0.1,0l4.7,0c0.2,0,0.4-0.1,0.4-0.3c0-0.1,0-0.2-0.1-0.2l-2.3-4.1c-0.2-0.4-0.6-0.5-0.9-0.4
		C-551.2-6610.5-551.2-6610.5-551.3-6610.5L-551.3-6610.5z M-542.7-6612.1L-542.7-6612.1c-1.9-0.7-3.9-0.7-5.8,0c0,0-0.1,0-0.1,0
		c-0.4,0.2-0.6,0.7-0.4,1.2c0,0,0,0.1,0.1,0.1l2.9,5c0.1,0.2,0.4,0.3,0.6,0.2c0.1,0,0.2-0.1,0.2-0.2l2.9-5c0.3-0.4,0.2-0.9-0.2-1.2
		C-542.6-6612.1-542.6-6612.1-542.7-6612.1L-542.7-6612.1z"/>
	<path id="Caminho_5" class="st0" d="M-506.2-6621.2l7,14.2l7-14.2h10.5v28.5h-10.5v-14.3l-7,14.3l-7-14.3v14.2h-10.5v-28.5
		L-506.2-6621.2z"/>
	<path id="Caminho_6" class="st0" d="M-460.9-6616.9l-4.3,14.9h8.5L-460.9-6616.9L-460.9-6616.9z M-478.4-6592.7l8.2-28.5h18.6
		l8.2,28.5H-454l-1.3-4.7h-11.2l-1.3,4.7H-478.4z"/>
	<path id="Caminho_7" class="st0" d="M-427.1-6617.9c2.4,0,4.7,1.3,4.7,3.9c0,2.6-2,4.7-4.6,4.7c0,0-0.1,0-0.1,0h-2.3v-8.5H-427.1z
		 M-420.4-6621.2h-19.7v28.5h10.5v-11.9h9.2c4.6,0,8.3-3.7,8.3-8.3C-412.1-6617.4-415.8-6621.2-420.4-6621.2L-420.4-6621.2z"/>
	<path id="Caminho_8" class="st0" d="M-408.4-6621.2h28v4.7h-17.5v7.2h17.5v4.7h-17.5v11.9h-10.5V-6621.2z"/>
	<path id="Caminho_9" class="st0" d="M-334.3-6597.3h17.5v4.7h-28v-28.5h28v4.7h-17.5v7.2h17.5v4.7h-17.5V-6597.3z"/>
	<path id="Caminho_10" class="st0" d="M-363.8-6617.9c2.3,0,4.7,1.3,4.7,3.9c0,2.6-2.1,4.7-4.7,4.7c0,0,0,0,0,0h-2.3v-8.5H-363.8z
		 M-348.8-6600v0.2C-348.8-6599.9-348.8-6599.9-348.8-6600z M-348.8-6599.8c0-0.1,0-0.2,0-0.2c-0.1-3.8-3.3-6.9-7.1-6.9
		c3.9,0,7.1-3.3,7-7.2c0-3.9-3.2-7-7-7h-20.9v28.5h10.7v-11.8h2.3c2.6,0,4.7,2.1,4.7,4.7c0,0.1,0,0.2,0,0.2v6.9h10.3L-348.8-6599.8z
		"/>
</g>
<line id="Linha_15" class="st1" x1="266.5" y1="1.8" x2="266.5" y2="52.8"/>
<line id="Linha_16" class="st1" x1="8.5" y1="71.8" x2="519.5" y2="71.8"/>
<g class="st2">
	<path class="st3" d="M201.6,95.3l-0.9-2.6h-5l-0.9,2.6h-1.3l4.2-11.4h1l4.2,11.4H201.6z M198.2,85.6l-2.1,6h4.3L198.2,85.6z"/>
	<path class="st3" d="M207,98.9c-1.2,0-1.8-0.3-2.7-1.1l0.8-0.7c0.6,0.5,1,0.8,1.9,0.8c1.5,0,2.2-1.1,2.2-2.4v-1.2
		c-0.6,0.8-1.4,1-2.2,1c-0.8,0-1.5-0.3-1.9-0.7c-0.8-0.8-1-2-1-3.3c0-1.3,0.2-2.5,1-3.3c0.4-0.4,1.1-0.7,1.9-0.7
		c0.9,0,1.6,0.2,2.2,1v-0.9h1.1v8.1C210.3,97.5,209.1,98.9,207,98.9z M207.2,88.3c-1.7,0-2,1.5-2,2.9s0.3,2.9,2,2.9
		c1.7,0,2-1.5,2-2.9S208.9,88.3,207.2,88.3z"/>
	<path class="st3" d="M213.9,91.6c0,1.7,0.8,2.7,2.3,2.7c0.9,0,1.4-0.3,2.1-0.9l0.8,0.7c-0.8,0.8-1.5,1.2-2.9,1.2
		c-2.1,0-3.4-1.2-3.4-4c0-2.5,1.2-4,3.2-4c2,0,3.2,1.5,3.2,3.8v0.5H213.9z M217.8,89.5c-0.3-0.7-1-1.2-1.8-1.2s-1.5,0.5-1.8,1.2
		c-0.2,0.4-0.2,0.7-0.2,1.3h4.2C218.1,90.1,218,89.9,217.8,89.5z"/>
	<path class="st3" d="M226.7,95.3v-4.8c0-1.4-0.8-2.1-1.9-2.1s-2,0.7-2,2.1v4.8h-1.2v-7.9h1.2v0.9c0.6-0.6,1.3-1,2.2-1
		c0.8,0,1.5,0.3,2,0.7c0.6,0.5,0.8,1.3,0.8,2.2v5H226.7z"/>
	<path class="st3" d="M232.9,95.3c-1.3,0-2-0.9-2-2.1v-4.8h-1v-0.9h1V85h1.2v2.5h1.7v0.9H232v4.8c0,0.7,0.3,1.2,1.1,1.2h0.6v1H232.9
		z"/>
	<path class="st3" d="M236.6,91.6c0,1.7,0.8,2.7,2.3,2.7c0.9,0,1.4-0.3,2.1-0.9l0.8,0.7c-0.8,0.8-1.5,1.2-2.9,1.2
		c-2.1,0-3.4-1.2-3.4-4c0-2.5,1.2-4,3.2-4c2,0,3.2,1.5,3.2,3.8v0.5H236.6z M240.5,89.5c-0.3-0.7-1-1.2-1.8-1.2s-1.5,0.5-1.8,1.2
		c-0.2,0.4-0.2,0.7-0.2,1.3h4.2C240.7,90.1,240.7,89.9,240.5,89.5z"/>
	<path class="st3" d="M252.8,95.3v-0.8c-0.6,0.6-1.2,0.8-2.3,0.8c-1.1,0-1.7-0.2-2.2-0.7c-0.4-0.4-0.6-1-0.6-1.6
		c0-1.4,1-2.3,2.7-2.3h2.4V90c0-1.2-0.6-1.7-2-1.7c-1,0-1.5,0.2-2,0.9l-0.8-0.7c0.7-0.9,1.5-1.2,2.8-1.2c2.1,0,3.2,0.9,3.2,2.6v5.3
		H252.8z M252.8,91.6h-2.2c-1.2,0-1.8,0.5-1.8,1.4c0,0.9,0.6,1.3,1.8,1.3c0.7,0,1.3,0,1.8-0.5c0.3-0.3,0.4-0.7,0.4-1.4V91.6z"/>
	<path class="st3" d="M261.7,95.3v-0.9c-0.6,0.6-1.3,1-2.2,1c-0.8,0-1.6-0.3-2-0.7c-0.6-0.5-0.8-1.3-0.8-2.2v-5h1.2v4.8
		c0,1.4,0.7,2.1,1.9,2.1c1.2,0,2-0.7,2-2.1v-4.8h1.2v7.9H261.7z"/>
	<path class="st3" d="M267.9,95.3c-1.3,0-2-0.9-2-2.1v-4.8h-1v-0.9h1V85h1.2v2.5h1.7v0.9h-1.7v4.8c0,0.7,0.3,1.2,1.1,1.2h0.6v1
		H267.9z"/>
	<path class="st3" d="M276,94.5c-0.5,0.5-1.3,0.9-2.3,0.9c-1,0-1.7-0.4-2.3-0.9c-0.8-0.8-1-1.9-1-3.1s0.2-2.3,1-3.1
		c0.5-0.5,1.3-0.9,2.3-0.9c1,0,1.7,0.4,2.3,0.9c0.8,0.8,1,1.9,1,3.1S276.8,93.7,276,94.5z M275.2,88.9c-0.4-0.4-0.9-0.6-1.4-0.6
		c-0.6,0-1.1,0.2-1.4,0.6c-0.6,0.6-0.6,1.6-0.6,2.4c0,0.9,0.1,1.9,0.6,2.4c0.4,0.4,0.9,0.6,1.4,0.6c0.6,0,1.1-0.2,1.4-0.6
		c0.6-0.6,0.6-1.6,0.6-2.4C275.8,90.5,275.7,89.5,275.2,88.9z"/>
	<path class="st3" d="M283.8,88.9c-0.4-0.4-0.8-0.6-1.4-0.6c-1.2,0-1.9,0.9-1.9,2.1v4.8h-1.2v-7.9h1.2v1c0.4-0.7,1.3-1.1,2.2-1.1
		c0.8,0,1.3,0.2,1.9,0.7L283.8,88.9z"/>
	<path class="st3" d="M286.1,85.2v-1.3h1.3v1.3H286.1z M286.1,95.3v-7.9h1.2v7.9H286.1z"/>
	<path class="st3" d="M289.5,95.3v-1l4.4-5.9h-4.1v-1h5.5v1l-4.4,5.9h4.4v1H289.5z"/>
	<path class="st3" d="M302,95.3v-0.8c-0.6,0.6-1.2,0.8-2.3,0.8c-1.1,0-1.7-0.2-2.2-0.7c-0.4-0.4-0.6-1-0.6-1.6c0-1.4,1-2.3,2.7-2.3
		h2.4V90c0-1.2-0.6-1.7-2-1.7c-1,0-1.5,0.2-2,0.9l-0.8-0.7c0.7-0.9,1.5-1.2,2.8-1.2c2.1,0,3.2,0.9,3.2,2.6v5.3H302z M302,91.6h-2.2
		c-1.2,0-1.8,0.5-1.8,1.4c0,0.9,0.6,1.3,1.8,1.3c0.7,0,1.3,0,1.8-0.5c0.3-0.3,0.4-0.7,0.4-1.4V91.6z"/>
	<path class="st3" d="M310.6,95.3v-0.9c-0.6,0.8-1.4,1-2.2,1c-0.8,0-1.5-0.3-1.9-0.7c-0.8-0.8-1-2.1-1-3.3s0.2-2.5,1-3.3
		c0.4-0.4,1.1-0.7,1.9-0.7c0.9,0,1.6,0.2,2.2,1v-4.4h1.2v11.4H310.6z M308.7,88.3c-1.7,0-2,1.5-2,3c0,1.5,0.3,3,2,3s2-1.5,2-3
		C310.6,89.8,310.4,88.3,308.7,88.3z"/>
	<path class="st3" d="M319.7,94.5c-0.5,0.5-1.3,0.9-2.3,0.9c-1,0-1.7-0.4-2.3-0.9c-0.8-0.8-1-1.9-1-3.1s0.2-2.3,1-3.1
		c0.5-0.5,1.3-0.9,2.3-0.9c1,0,1.7,0.4,2.3,0.9c0.8,0.8,1,1.9,1,3.1S320.5,93.7,319.7,94.5z M318.9,88.9c-0.4-0.4-0.9-0.6-1.4-0.6
		c-0.6,0-1.1,0.2-1.4,0.6c-0.6,0.6-0.6,1.6-0.6,2.4c0,0.9,0.1,1.9,0.6,2.4c0.4,0.4,0.9,0.6,1.4,0.6c0.6,0,1.1-0.2,1.4-0.6
		c0.6-0.6,0.6-1.6,0.6-2.4C319.5,90.5,319.5,89.5,318.9,88.9z"/>
</g>
<g id="Agrupar_435" transform="translate(234.559 6372.989)">
	<g id="Agrupar_434" transform="translate(758.441 492.729)">
		<g id="Agrupar_433">
			<g id="Agrupar_432">
				<g id="Agrupar_430" transform="translate(29.461)">
					<g id="Agrupar_428">
						<path id="Caminho_152" class="st3" d="M-699-6827.4c-2.6-2.5-4-6-4-10.7v-1.7c0.1-4.5,1.5-7.9,4.2-10.5
							c2.6-2.5,6.2-3.8,10.6-3.8c2.9-0.1,5.7,0.6,8.2,1.9c2.2,1.2,3.9,3.1,5,5.3c1.1,2.4,1.7,5.1,1.7,7.7v1.4c0,0.8-0.6,1.4-1.4,1.5
							c0,0,0,0,0,0h-17.8v0.3c0,1.4,0.4,2.9,1.2,4.1c0.7,1,1.9,1.6,3.2,1.5c0.8,0,1.5-0.1,2.2-0.5c0.6-0.4,1.1-0.8,1.5-1.4
							c0.2-0.3,0.5-0.5,0.8-0.7c0.3-0.1,0.6-0.2,1-0.1h7.4c0.3,0,0.6,0.1,0.9,0.3c0.2,0.2,0.4,0.5,0.4,0.8c-0.1,1.3-0.7,2.5-1.7,3.4
							c-1.3,1.5-3,2.6-4.8,3.4c-2.4,1-4.9,1.5-7.5,1.4C-692.7-6823.7-696.3-6824.9-699-6827.4z M-683.7-6841.9v-0.1
							c0.1-1.5-0.3-3-1.2-4.2c-0.8-1-2-1.6-3.3-1.5c-1.3-0.1-2.5,0.5-3.3,1.5c-0.8,1.2-1.2,2.7-1.2,4.2v0.1H-683.7z"/>
						<path id="Caminho_153" class="st3" d="M-664.7-6813.6c-1.9-0.9-3.6-2.3-4.8-4c-0.8-1.1-1.3-2.4-1.5-3.8c0-0.4,0.2-0.7,0.4-1
							c0.3-0.3,0.6-0.4,1-0.4h7.5c0.3,0,0.6,0.1,0.9,0.3c0.3,0.2,0.5,0.5,0.6,0.9c0.3,0.8,0.8,1.4,1.5,1.9c0.8,0.5,1.8,0.8,2.8,0.7
							c1.3,0.1,2.6-0.3,3.6-1.2c0.9-1.1,1.3-2.6,1.2-4v-3.8c-2.2,2.1-5.1,3.3-8.2,3.1c-3.8,0-6.7-1.1-8.7-3.3
							c-2-2.2-3.1-5.4-3.3-9.7l-0.1-1.5c0-4.6,1-8.2,3.1-10.7c2-2.6,5-3.9,9-3.9c1.7,0,3.5,0.3,5.1,1.1c1.4,0.7,2.7,1.7,3.7,3v-2
							c0-0.4,0.1-0.8,0.4-1c0.3-0.3,0.6-0.4,1-0.4h6.9c0.8,0,1.4,0.6,1.5,1.4c0,0,0,0,0,0v26.9c0,4.3-1.3,7.6-3.9,9.8
							c-2.6,2.2-6.2,3.4-10.9,3.4C-659-6811.8-662-6812.4-664.7-6813.6z M-652.8-6834c0.8-1.1,1.3-2.4,1.3-3.7
							c0.1-0.6,0.1-1.1,0.1-1.7c0-0.6,0-1.1-0.1-1.7c0-1.4-0.5-2.7-1.3-3.7c-0.9-1-2.2-1.5-3.6-1.4c-1.4-0.1-2.7,0.4-3.6,1.5
							c-0.8,1.2-1.3,2.7-1.2,4.1l-0.1,1.2c-0.1,1.7,0.3,3.5,1.1,5c0.8,1.3,2.3,2,3.8,1.8C-655-6832.4-653.7-6833-652.8-6834
							L-652.8-6834z"/>
						<path id="Caminho_154" class="st3" d="M-634.2-6827c-2-2.2-3-5.3-3-9.4v-15.7c0-0.4,0.1-0.8,0.4-1c0.3-0.3,0.6-0.4,1-0.4h7.5
							c0.4,0,0.8,0.1,1,0.4c0.3,0.3,0.4,0.6,0.4,1v15.4c0,3.5,1.6,5.2,4.7,5.2c1.3,0.1,2.6-0.4,3.5-1.4c0.9-1.1,1.3-2.5,1.3-3.9
							v-15.4c0-0.4,0.1-0.8,0.4-1c0.3-0.3,0.7-0.4,1-0.4h7.4c0.7,0,1.4,0.5,1.4,1.3c0,0,0,0.1,0,0.1v26.4c0,0.4-0.1,0.7-0.4,1
							c-0.3,0.3-0.6,0.4-1,0.4h-6.9c-0.4,0-0.8-0.1-1-0.4c-0.3-0.3-0.4-0.6-0.4-1v-2.1c-2,2.7-5.1,4.1-9.3,4.1
							C-629.2-6823.6-632.2-6824.8-634.2-6827z"/>
						<path id="Caminho_155" class="st3" d="M-602.6-6824.7c-0.3-0.3-0.4-0.6-0.4-1v-26.4c0-0.4,0.1-0.8,0.4-1
							c0.3-0.3,0.6-0.4,1-0.4h6.9c0.8,0,1.4,0.6,1.5,1.4c0,0,0,0,0,0v2.1c1-1.1,2.3-2.1,3.7-2.7c1.5-0.6,3.1-1,4.7-0.9h2.5
							c0.7,0,1.4,0.5,1.4,1.3c0,0,0,0.1,0,0.1v6.1c0,0.4-0.1,0.7-0.4,1c-0.3,0.3-0.6,0.4-1,0.4h-5.7c-1.3-0.1-2.5,0.4-3.5,1.2
							c-0.9,1-1.3,2.2-1.2,3.5v14.2c0,0.4-0.1,0.8-0.4,1c-0.3,0.3-0.7,0.4-1,0.4h-7.4C-602-6824.3-602.3-6824.4-602.6-6824.7z"/>
						<path id="Caminho_156" class="st4" d="M-512.5-6858c-0.3-0.3-0.4-0.7-0.4-1v-5.2c0-0.4,0.1-0.8,0.4-1c0.3-0.3,0.6-0.4,1-0.4h7
							c0.4,0,0.8,0.1,1,0.4c0.3,0.3,0.4,0.6,0.4,1v5.2c0,0.8-0.6,1.5-1.4,1.5c0,0,0,0,0,0h-7C-511.8-6857.5-512.2-6857.7-512.5-6858
							z M-512.4-6824.7c-0.3-0.3-0.4-0.6-0.4-1v-26.4c0-0.4,0.1-0.8,0.4-1c0.3-0.3,0.6-0.4,1-0.4h7c0.4,0,0.8,0.1,1,0.4
							c0.3,0.3,0.4,0.6,0.4,1v26.4c0,0.4-0.1,0.8-0.4,1c-0.3,0.3-0.7,0.4-1,0.4h-7C-511.8-6824.3-512.2-6824.4-512.4-6824.7
							L-512.4-6824.7z"/>
					</g>
					<g id="Agrupar_429" transform="translate(122.282 11.64)">
						<circle id="Elipse_43" class="st4" cx="-671.9" cy="-6839.9" r="4.6"/>
						<path id="Caminho_157" class="st3" d="M-678.3-6840c0-1.8,0.8-3.5,2.1-4.7h-6.5c-0.3,0-0.7,0-1,0.1c-0.3,0.2-0.6,0.4-0.8,0.7
							c-0.4,0.5-1,1-1.5,1.4c-0.7,0.4-1.4,0.6-2.2,0.5c-1.3,0.1-2.5-0.5-3.2-1.5c-0.8-1.2-1.2-2.6-1.2-4.1v-0.3h17.8
							c0.8,0,1.4-0.6,1.5-1.4c0,0,0,0,0,0v-1.4c0-2.7-0.5-5.3-1.7-7.7c-1.1-2.2-2.8-4.1-5-5.3c-2.5-1.4-5.3-2-8.2-1.9
							c-4.5,0-8,1.3-10.6,3.8c-2.6,2.5-4,6-4.2,10.5v1.7c0.1,4.7,1.4,8.3,4,10.7c2.6,2.5,6.2,3.7,10.8,3.7c2.6,0.1,5.1-0.4,7.5-1.4
							c0.9-0.4,1.8-0.9,2.6-1.5C-678.2-6838.8-678.3-6839.4-678.3-6840z M-692.7-6853.7c-0.1-1.5,0.3-3,1.2-4.2c0.8-1,2-1.6,3.3-1.5
							c1.3-0.1,2.5,0.5,3.3,1.5c0.9,1.2,1.3,2.7,1.2,4.2v0.1h-8.9V-6853.7z"/>
						<path id="Caminho_158" class="st4" d="M-642.4-6862.7c-2.3-2-5.7-3.1-10.3-3.1c-2.5-0.1-5,0.4-7.4,1.4
							c-1.7,0.7-3.2,1.8-4.4,3.2c-0.8,0.9-1.4,2.1-1.5,3.4c0,0.3,0.1,0.7,0.3,0.9c0.2,0.2,0.6,0.4,0.9,0.4h6.5
							c0.2,0,0.5-0.2,0.6-0.4c0.5-0.2,0.9-0.6,1.3-0.9c0.5-0.5,1.1-0.8,1.7-1.2c0.6-0.3,1.2-0.4,1.9-0.4c1-0.1,2.1,0.2,2.9,1
							c0.6,0.9,0.9,2,0.8,3v0.7l-7,1.1c-3.1,0.4-6.1,1.5-8.7,3.3c-1.8,1.3-2.9,3.2-3.1,5.4c2,1.5,2.9,4,2.3,6.4
							c0.8,0.9,1.8,1.6,2.8,2.1c1.7,0.8,3.6,1.2,5.4,1.2c1.8,0,3.6-0.3,5.2-1.1c1.4-0.6,2.5-1.6,3.4-2.8v2c0,0.8,0.6,1.4,1.4,1.4
							h6.9c0.4,0,0.8-0.1,1-0.4c0.3-0.3,0.4-0.6,0.4-1v-17C-638.8-6857.5-640.1-6860.5-642.4-6862.7z M-649-6848.3
							c0.1,1.7-0.4,3.4-1.5,4.7c-1,1.1-2.5,1.7-4,1.6c-1,0-1.9-0.2-2.7-0.8c-0.7-0.5-1.1-1.2-1.1-2.1c0-1.6,1.6-2.8,4.7-3.4l4.7-0.8
							V-6848.3z"/>
					</g>
				</g>
				<g id="Agrupar_431" transform="translate(0 11.69)">
					<path id="Caminho_159" class="st3" d="M-696.9-6836.6c-1.8-0.6-3.3-1.7-4.6-3.1c-0.9-0.9-1.4-2-1.5-3.3c0-0.4,0.1-0.7,0.4-0.9
						c0.3-0.2,0.6-0.4,0.9-0.4h6.8c0.2,0,0.4,0.1,0.6,0.2c0.6,0.4,1,0.7,1.1,0.7c0.6,0.5,1.3,0.9,2,1.2c0.7,0.3,1.5,0.4,2.2,0.4
						c0.9,0,1.7-0.2,2.5-0.6c0.6-0.3,1-1,1-1.7c0-0.5-0.2-1.1-0.5-1.5c-0.6-0.5-1.3-0.9-2-1.1c-1.5-0.5-3-0.8-4.5-1.1
						c-6.5-1.3-9.7-4.3-9.7-9c0-1.6,0.5-3.1,1.5-4.4c1.1-1.5,2.6-2.7,4.4-3.4c2.2-0.9,4.6-1.4,6.9-1.3c2.4-0.1,4.8,0.4,7.1,1.3
						c1.7,0.7,3.3,1.7,4.6,3c0.9,0.9,1.5,2,1.6,3.2c0,0.3-0.1,0.7-0.4,0.9c-0.2,0.3-0.5,0.4-0.9,0.4h-6.2c-0.3,0-0.6-0.1-0.8-0.2
						c-0.5-0.2-0.9-0.5-1.3-0.8c-0.6-0.4-1.2-0.7-1.8-1c-0.6-0.3-1.3-0.4-1.9-0.4c-0.8,0-1.6,0.2-2.2,0.6c-0.5,0.4-0.8,1-0.8,1.6
						c0,0.5,0.2,1,0.5,1.4c0.6,0.5,1.2,0.9,2,1c1.5,0.5,3,0.8,4.5,1.1c3.7,0.6,6.3,1.8,8,3.4c3.2,3,3.4,7.9,0.4,11.1
						c-0.5,0.5-1,1-1.6,1.3c-2.5,1.7-6,2.5-10.5,2.5C-691.9-6835.3-694.5-6835.7-696.9-6836.6z"/>
				</g>
			</g>
		</g>
	</g>
</g>
</svg>
