<svg xmlns="http://www.w3.org/2000/svg" width="68.337" height="44.099" viewBox="0 0 68.337 44.099">
  <g id="Agrupar_422" data-name="Agrupar 422" transform="translate(-0.001 0)">
    <path id="Caminho_142" data-name="Caminho 142" d="M-259.328,70.784h-4.663V52.659h.768c.024,0,.046-.009.07-.011a1.281,1.281,0,0,0,.188-.028,2.279,2.279,0,0,0,1.569-.969l1.717-2.547a2.278,2.278,0,0,0,.35-1.716,2.277,2.277,0,0,0-.967-1.461l-23.863-16.087a4.126,4.126,0,0,0-2.147-.654h-10.938c-.034,0-.065.008-.1.01a3.81,3.81,0,0,0-1.959.656l-23.568,16.1a2.274,2.274,0,0,0-.958,1.465,2.271,2.271,0,0,0,.36,1.714l1.732,2.536a2.276,2.276,0,0,0,1.467.959,2.325,2.325,0,0,0,.427.04,2.265,2.265,0,0,0,.681-.106V70.784h-6.005a1.251,1.251,0,0,0-1.25,1.25,1.25,1.25,0,0,0,1.25,1.25h65.837a1.251,1.251,0,0,0,1.25-1.25A1.251,1.251,0,0,0-259.328,70.784Zm-4.077-20.625h-7.832l.711-1.055a2.425,2.425,0,0,0,.139-.258h7.867Zm-22.9-18.473a1.6,1.6,0,0,1,.743.227l21.41,14.433h-6.542a2.242,2.242,0,0,0-.453-.418l-21.125-14.242ZM-319.67,50.254h0Zm-.12-.175-1.493-2.187,23.392-15.977a1.319,1.319,0,0,1,.729-.23h.026a1.318,1.318,0,0,1,.732.227l23.687,15.969-1.48,2.2-22.239-14.994a1.25,1.25,0,0,0-1.4,0Zm27.057,20.572h-8.535V57.322h8.535Zm15.393.123h-12.893v-14.7a1.251,1.251,0,0,0-1.25-1.25h-11.036a1.25,1.25,0,0,0-1.25,1.25v14.7H-316.66V50.968l19.529-13.337,19.792,13.343Zm10.848.009h-8.348V52.539a2.282,2.282,0,0,0,.7.119h7.648Z" transform="translate(326.415 -29.184)" fill="#fff"/>
  </g>
</svg>
