<svg xmlns="http://www.w3.org/2000/svg" width="45.712" height="45.713" viewBox="0 0 45.712 45.713">
  <g id="Agrupar_863" data-name="Agrupar 863" transform="translate(14796.894 -7673.844)">
    <path id="Caminho_220" data-name="Caminho 220" d="M64.756,0A22.856,22.856,0,1,0,87.613,22.856,22.816,22.816,0,0,0,64.756,0m0,3.228A19.628,19.628,0,1,1,45.128,22.856,19.619,19.619,0,0,1,64.756,3.228" transform="translate(-14838.794 7673.844)" fill="#fff"/>
    <path id="Caminho_221" data-name="Caminho 221" d="M71.619,20.264h0V17.423a19.071,19.071,0,0,0-.129-2.712,3.846,3.846,0,0,0-1.033-2.324,4.334,4.334,0,0,0-2.97-1.42c-1.291-.129-2.712-.129-4-.129h-4a19.071,19.071,0,0,0-2.712.129A3.846,3.846,0,0,0,54.445,12a4.334,4.334,0,0,0-1.42,2.97c-.129,1.291-.129,2.712-.129,4v4a19.071,19.071,0,0,0,.129,2.712,3.846,3.846,0,0,0,1.033,2.324,4.334,4.334,0,0,0,2.97,1.42c1.291.129,2.712.129,4,.129h4A11.563,11.563,0,0,0,68,29.3a3.7,3.7,0,0,0,3.228-2.841,7.558,7.558,0,0,0,.258-1.679c.129-1.42.129-2.97.129-4.52m-20.79,3.745V16.261a15.9,15.9,0,0,1,.258-2.583,5.654,5.654,0,0,1,3.487-4.132,13.258,13.258,0,0,1,3.1-.646H66.2a6.4,6.4,0,0,1,2.2.258A5.909,5.909,0,0,1,73.3,13.807a15.3,15.3,0,0,1,.258,3.357v6.715a8.366,8.366,0,0,1-.258,2.583,5.909,5.909,0,0,1-4.649,4.907,14.726,14.726,0,0,1-3.357.258h-7.1a9.668,9.668,0,0,1-2.712-.258,5.771,5.771,0,0,1-4.132-3.357,6.893,6.893,0,0,1-.646-3.228c.258-.258.129-.517.129-.775" transform="translate(-14836.23 7676.437)" fill="#fff"/>
    <path id="Caminho_222" data-name="Caminho 222" d="M57.137,19.011a3.748,3.748,0,0,0,3.745,3.745,3.81,3.81,0,1,0,.129-7.619,3.97,3.97,0,0,0-3.874,3.874m9.685,0A5.811,5.811,0,1,1,61.011,13.2a5.87,5.87,0,0,1,5.811,5.811" transform="translate(-14834.919 7677.689)" fill="#fff"/>
    <path id="Caminho_223" data-name="Caminho 223" d="M66.041,13.32a1.42,1.42,0,1,1-1.42-1.42,1.433,1.433,0,0,1,1.42,1.42" transform="translate(-14832.588 7677.311)" fill="#fff"/>
  </g>
</svg>
