<svg id="Group_154" data-name="Group 154" xmlns="http://www.w3.org/2000/svg" width="99.694" height="99.694" viewBox="0 0 99.694 99.694">
  <path id="Path_39" data-name="Path 39" d="M-709.153,80.694A49.528,49.528,0,0,1-744.4,66.1,49.528,49.528,0,0,1-759,30.847,49.528,49.528,0,0,1-744.4-4.4,49.528,49.528,0,0,1-709.153-19,49.528,49.528,0,0,1-673.9-4.4a49.528,49.528,0,0,1,14.6,35.252A49.528,49.528,0,0,1-673.9,66.1,49.528,49.528,0,0,1-709.153,80.694Zm0-96.5A46.717,46.717,0,0,0-755.81,30.847,46.717,46.717,0,0,0-709.153,77.5,46.717,46.717,0,0,0-662.5,30.847,46.717,46.717,0,0,0-709.153-15.81Z" transform="translate(759 19)" fill="#fff"/>
  <line id="Line_13" data-name="Line 13" x2="14.406" y2="4.317" transform="translate(44.178 46.216)" fill="none"/>
  <g id="Group_145" data-name="Group 145" transform="translate(26.735 24.696)">
    <path id="Path_40" data-name="Path 40" d="M-491.194,104.9l-7.487-.042-19.385,19.385,2.379-.17,1.3,2.27,4.688-.68-1.58,6.853,7.37-7.37.409-4.159,4.046-.3.268-4.018,4.018-.268.268-4.018h3.75Zm-22.9,19.485-.522-.522,16.482-16.482.522.522Z" transform="translate(539.371 -104.858)" fill="#fff"/>
    <path id="Path_41" data-name="Path 41" d="M-599.558,221.4l1.539-6.672-4.226.613-1.314-2.3-2.436.174-.154-.084-.5.5a13.379,13.379,0,0,0-14.339,3,13.39,13.39,0,0,0,0,18.949,13.377,13.377,0,0,0,18.949,0,13.455,13.455,0,0,0,3.163-13.815Zm-13.647,10.014a2.536,2.536,0,0,1-3.581,0,2.536,2.536,0,0,1,0-3.581,2.536,2.536,0,0,1,3.581,0A2.536,2.536,0,0,1-613.206,231.415Z" transform="translate(624.917 -191.213)" fill="#fff"/>
  </g>
  <g id="Group_149" data-name="Group 149" transform="translate(32.5 33.327)">
    <g id="Group_146" data-name="Group 146" transform="translate(6.214 2.266)">
      <path id="Path_42" data-name="Path 42" d="M-543.886,176.726l.8-.477,4.464,7.5Z" transform="translate(543.886 -176.249)" fill="#fff"/>
    </g>
    <g id="Group_147" data-name="Group 147" transform="translate(12.641)">
      <path id="Path_43" data-name="Path 43" d="M-522.294,177.744l-.929-.083.774-8.7Z" transform="translate(523.224 -168.965)" fill="#fff"/>
    </g>
    <g id="Group_148" data-name="Group 148" transform="translate(0 9.443)">
      <path id="Path_44" data-name="Path 44" d="M-555.4,201.444l-8.469-2.12,8.7,1.215Z" transform="translate(563.865 -199.324)" fill="#fff"/>
    </g>
  </g>
  <g id="Group_153" data-name="Group 153" transform="translate(54.654 52.329)">
    <g id="Group_150" data-name="Group 150" transform="translate(1.46 3.679)">
      <path id="Path_45" data-name="Path 45" d="M-473.4,261.24l-6.433-4.924,6.959,4.236Z" transform="translate(479.836 -256.317)" fill="#fff"/>
    </g>
    <g id="Group_151" data-name="Group 151" transform="translate(0 5.002)">
      <path id="Path_46" data-name="Path 46" d="M-484.893,261.153l.829-.249,2.331,7.758Z" transform="translate(484.893 -260.904)" fill="#fff"/>
    </g>
    <g id="Group_152" data-name="Group 152" transform="translate(3.435)">
      <path id="Path_47" data-name="Path 47" d="M-472.875,245.523l-.117-.858,8.026-1.094Z" transform="translate(472.991 -243.571)" fill="#fff"/>
    </g>
  </g>
  <path id="Path_48" data-name="Path 48" d="M-560.29,179.826l-.7-.509v-.863h.862Z" transform="translate(594.382 -142.175)" fill="#fff"/>
  <path id="Path_49" data-name="Path 49" d="M-549.543,189.522l-.443.741-.859.08-.08-.859Z" transform="translate(587.45 -149.775)" fill="#fff"/>
  <path id="Path_50" data-name="Path 50" d="M-570.543,202.522l-.442.741-.859.08-.08-.859Z" transform="translate(601.918 -158.731)" fill="#fff"/>
  <path id="Path_51" data-name="Path 51" d="M-509.543,172.522l-.442.741-.859.08-.08-.859Z" transform="translate(559.892 -138.063)" fill="#fff"/>
  <path id="Path_52" data-name="Path 52" d="M-447.288,264.759l.457.657-.26.757-.757-.26Z" transform="translate(513.193 -206.315)" fill="#fff"/>
  <path id="Path_53" data-name="Path 53" d="M-455.32,253.127l.611-.517.778.188-.188.778Z" transform="translate(518.509 -197.672)" fill="#fff"/>
  <path id="Path_54" data-name="Path 54" d="M-455,232.157l.125-.791.712-.366.366.712Z" transform="translate(518.279 -182.299)" fill="#fff"/>
  <path id="Path_55" data-name="Path 55" d="M-468.1,282.726l.125-.791.712-.366.366.712Z" transform="translate(527.601 -218.273)" fill="#fff"/>
</svg>
