<svg xmlns="http://www.w3.org/2000/svg" width="25.885" height="43.516" viewBox="0 0 25.885 43.516">
  <path id="Caminho_21" data-name="Caminho 21" d="M256.857,55.629H246.521l.776-3.595,1.845-8.544.777-3.6a.961.961,0,0,0-1.757-.741l-1.786,2.736-4.213,6.453-4.921,7.539-3.912,5.993-1.25,1.914a.969.969,0,0,0,.83,1.446h10.315l-.776,3.6L240.6,77.378l-.764,3.537a.968.968,0,0,0,.129.866l.009.013.028.038a.911.911,0,0,0,.18.176l.012.008c.019.014.039.027.059.039l.012.007.019.011.045.023c.023.011.045.022.068.031h0a.918.918,0,0,0,.513.047.965.965,0,0,0,.706-.518l1.749-2.676,4.218-6.455,4.928-7.541,3.917-5.995,1.251-1.915A.969.969,0,0,0,256.857,55.629Z" transform="translate(-231.941 -38.677)" fill="#fdc300"/>
</svg>
