<?xml version="1.0" encoding="utf-8"?>
<!-- Generator: Adobe Illustrator 23.0.2, SVG Export Plug-In . SVG Version: 6.00 Build 0)  -->
<svg version="1.1" id="Camada_1" xmlns="http://www.w3.org/2000/svg" xmlns:xlink="http://www.w3.org/1999/xlink" x="0px" y="0px"
	 viewBox="0 0 276 59.5" style="enable-background:new 0 0 276 59.5;" xml:space="preserve">
<style type="text/css">
	.st0{fill-rule:evenodd;clip-rule:evenodd;fill:#FFFFFF;}
	.st1{enable-background:new    ;}
	.st2{fill:#FFFFFF;}
</style>
<g id="Agrupar_565" transform="translate(-1098 -840)">
	<g id="Agrupar_436" transform="translate(761 831.708)">
		<g id="Agrupar_57" transform="translate(337 36.245)">
			<path id="Caminho_3" class="st0" d="M15.8,0c8.7,0,15.8,7.1,15.8,15.8c0,8.7-7.1,15.8-15.8,15.8S0,24.5,0,15.8
				C0,7.1,7.1,0,15.8,0L15.8,0z M15.8,1.5C7.9,1.5,1.5,7.9,1.5,15.8C1.5,23.7,7.9,30,15.8,30S30,23.7,30,15.8l0,0
				C30,7.9,23.6,1.5,15.8,1.5L15.8,1.5z"/>
			<path id="Caminho_4" class="st0" d="M16.5,18.8v4.8H15v-4.8c-0.7,0-1.7,0-2.1,0l-5.1,0c-1.3,0.1-2.4-0.9-2.4-2.2
				c0-0.1,0-0.1,0-0.2c0-0.1,0-0.2,0-0.3c0.4-2.1,1.5-4,3.1-5.4c0.6-0.4,1.3-0.6,2-0.5c0.2-0.7,0.6-1.2,1.3-1.5
				c0.1-0.1,0.2-0.1,0.3-0.1c2.4-0.9,5-0.9,7.5,0c0.7,0.3,1.3,0.9,1.5,1.6c0.7-0.2,1.3,0,1.9,0.4c0.9,0.7,1.6,1.6,2.2,2.5
				c0.5,0.9,0.9,1.9,1.1,3c0,0.1,0,0.2,0,0.3c0.1,1.3-0.9,2.4-2.2,2.4c-0.1,0-0.1,0-0.2,0l-5.1,0C18.2,18.8,17.3,18.8,16.5,18.8
				L16.5,18.8z M22,11.8c-0.3-0.3-0.8-0.2-1.1,0.2c0,0-0.1,0.1-0.1,0.1l-2.6,4.5c-0.1,0.2-0.1,0.4,0.1,0.5c0.1,0,0.2,0.1,0.2,0.1
				l5.2,0c0.2,0,0.3,0,0.5-0.1c0.3-0.2,0.4-0.4,0.4-0.7c0,0,0-0.1,0-0.1C24.3,14.6,23.4,13,22,11.8L22,11.8L22,11.8z M9.5,11.8
				L9.5,11.8c-1.4,1.2-2.3,2.8-2.6,4.5c0,0,0,0.1,0,0.1c0,0.4,0.3,0.8,0.7,0.8c0,0,0.1,0,0.1,0l5.2,0c0.2,0,0.4-0.1,0.4-0.4
				c0-0.1,0-0.2-0.1-0.3l-2.6-4.5c-0.2-0.4-0.6-0.6-1-0.4C9.6,11.8,9.6,11.8,9.5,11.8L9.5,11.8z M19,10L19,10
				c-2.1-0.8-4.4-0.8-6.4,0c0,0-0.1,0-0.1,0c-0.5,0.2-0.7,0.8-0.5,1.3c0,0,0,0.1,0.1,0.1l3.2,5.5c0.1,0.2,0.4,0.3,0.6,0.2
				c0.1,0,0.2-0.1,0.2-0.2l3.2-5.6c0.3-0.4,0.2-1-0.2-1.3C19.1,10.1,19.1,10.1,19,10L19,10z"/>
			<path id="Caminho_5" class="st0" d="M59.4,0l7.7,15.8L74.8,0h11.6v31.5H74.8V15.8l-7.7,15.8l-7.7-15.8v15.8H47.7V0H59.4z"/>
			<path id="Caminho_6" class="st0" d="M109.5,4.7l-4.7,16.5h9.5L109.5,4.7L109.5,4.7z M90.2,31.6L99.2,0h20.6l9.1,31.5h-11.6
				l-1.5-5.2h-12.4l-1.5,5.2L90.2,31.6z"/>
			<path id="Caminho_7" class="st0" d="M147,3.6c2.6,0,5.2,1.4,5.2,4.3c0,2.8-2.3,5.2-5.1,5.2c0,0-0.1,0-0.1,0h-2.5V3.6H147z
				 M154.4,0h-21.8v31.5h11.6V18.4h10.2c5.1-0.1,9.1-4.4,8.9-9.5C163.2,4.1,159.3,0.2,154.4,0L154.4,0z"/>
			<path id="Caminho_8" class="st0" d="M167.6,0h31v5.2h-19.3v8h19.3v5.2h-19.3v13.2h-11.6V0z"/>
			<path id="Caminho_9" class="st0" d="M249.7,26.4H269v5.2h-31V0h31v5.2h-19.3v8H269v5.2h-19.3V26.4z"/>
			<path id="Caminho_10" class="st0" d="M217,3.6c2.6,0,5.2,1.4,5.2,4.3c0,2.9-2.3,5.2-5.2,5.2c0,0,0,0,0,0h-2.5V3.6H217z
				 M233.7,23.4v0.3C233.7,23.6,233.7,23.5,233.7,23.4z M233.7,23.7c0-0.1,0-0.2,0-0.3c-0.1-4.3-3.6-7.6-7.9-7.6
				c4.4,0,7.9-3.5,7.9-7.9S230.1,0,225.8,0h-23.1v31.5h11.8V18.5h2.5c2.9,0,5.2,2.3,5.2,5.2c0,0.1,0,0.2,0,0.3v7.6h11.5L233.7,23.7z
				"/>
		</g>
	</g>
	<g class="st1">
		<path class="st2" d="M1152.1,858c0.6,0,1.1-0.1,1.6-0.2c0.4-0.1,0.9-0.3,1.3-0.5v-2.6h-1.8c-0.2,0-0.3,0-0.4-0.1s-0.1-0.2-0.1-0.4
			v-1.5h4.8v5.8c-0.4,0.3-0.7,0.5-1.1,0.7c-0.4,0.2-0.8,0.4-1.3,0.5c-0.5,0.1-0.9,0.2-1.4,0.3c-0.5,0.1-1.1,0.1-1.7,0.1
			c-1.1,0-2-0.2-2.9-0.5c-0.9-0.4-1.7-0.9-2.3-1.5c-0.6-0.7-1.2-1.4-1.5-2.3c-0.4-0.9-0.5-1.9-0.5-3c0-1.1,0.2-2.1,0.5-3
			c0.4-0.9,0.9-1.7,1.5-2.3c0.7-0.7,1.4-1.2,2.4-1.5s2-0.5,3.1-0.5c1.2,0,2.2,0.2,3.1,0.5c0.9,0.3,1.6,0.8,2.2,1.4l-0.8,1.2
			c-0.2,0.2-0.4,0.4-0.6,0.4c-0.2,0-0.3-0.1-0.5-0.2c-0.2-0.1-0.4-0.3-0.7-0.4c-0.2-0.1-0.5-0.2-0.7-0.3c-0.3-0.1-0.6-0.2-0.9-0.2
			c-0.3-0.1-0.7-0.1-1.2-0.1c-0.7,0-1.4,0.1-1.9,0.4c-0.6,0.2-1.1,0.6-1.5,1c-0.4,0.4-0.7,1-0.9,1.6c-0.2,0.6-0.3,1.3-0.3,2.1
			c0,0.8,0.1,1.6,0.4,2.2c0.2,0.6,0.6,1.2,1,1.6c0.4,0.4,0.9,0.8,1.5,1C1150.8,857.9,1151.4,858,1152.1,858z"/>
		<path class="st2" d="M1168.1,860h-1.1c-0.2,0-0.4,0-0.5-0.1c-0.1-0.1-0.2-0.2-0.3-0.4l-0.2-0.7c-0.3,0.2-0.5,0.4-0.8,0.6
			c-0.3,0.2-0.5,0.3-0.8,0.4c-0.3,0.1-0.6,0.2-0.9,0.3c-0.3,0.1-0.6,0.1-1,0.1c-0.4,0-0.8-0.1-1.2-0.2s-0.7-0.3-0.9-0.5
			c-0.3-0.2-0.5-0.5-0.6-0.9c-0.1-0.3-0.2-0.8-0.2-1.2c0-0.4,0.1-0.8,0.3-1.1c0.2-0.4,0.5-0.7,1-1c0.5-0.3,1.1-0.6,1.9-0.8
			c0.8-0.2,1.8-0.3,2.9-0.3v-0.6c0-0.7-0.1-1.2-0.4-1.5c-0.3-0.3-0.7-0.5-1.3-0.5c-0.4,0-0.7,0-1,0.1c-0.3,0.1-0.5,0.2-0.7,0.3
			c-0.2,0.1-0.4,0.2-0.5,0.3c-0.2,0.1-0.3,0.1-0.5,0.1c-0.2,0-0.3,0-0.4-0.1c-0.1-0.1-0.2-0.2-0.3-0.3l-0.5-0.8
			c1.2-1.1,2.6-1.6,4.3-1.6c0.6,0,1.1,0.1,1.6,0.3c0.5,0.2,0.9,0.5,1.2,0.8s0.6,0.8,0.7,1.3s0.3,1,0.3,1.6V860z M1163.3,858.5
			c0.3,0,0.5,0,0.7-0.1c0.2,0,0.4-0.1,0.6-0.2c0.2-0.1,0.4-0.2,0.5-0.3s0.4-0.3,0.5-0.5v-1.7c-0.7,0-1.3,0-1.8,0.1s-0.9,0.2-1.2,0.3
			c-0.3,0.1-0.5,0.3-0.6,0.5c-0.1,0.2-0.2,0.4-0.2,0.6c0,0.4,0.1,0.7,0.4,0.9C1162.6,858.4,1162.9,858.5,1163.3,858.5z"/>
		<path class="st2" d="M1170.8,860v-10.3h1.5c0.3,0,0.4,0,0.5,0.1c0.1,0.1,0.2,0.3,0.2,0.5l0.1,1.2c0.4-0.6,0.8-1.1,1.3-1.5
			c0.5-0.4,1-0.5,1.7-0.5c0.5,0,0.9,0.1,1.3,0.4l-0.3,1.8c0,0.1-0.1,0.2-0.1,0.3c-0.1,0-0.2,0.1-0.3,0.1c-0.1,0-0.2,0-0.4-0.1
			c-0.2,0-0.4-0.1-0.7-0.1c-0.5,0-1,0.1-1.3,0.4c-0.4,0.3-0.7,0.7-0.9,1.2v6.4H1170.8z"/>
		<path class="st2" d="M1187,860h-1.1c-0.2,0-0.4,0-0.5-0.1c-0.1-0.1-0.2-0.2-0.3-0.4l-0.2-0.7c-0.3,0.2-0.5,0.4-0.8,0.6
			c-0.3,0.2-0.5,0.3-0.8,0.4c-0.3,0.1-0.6,0.2-0.9,0.3c-0.3,0.1-0.6,0.1-1,0.1c-0.4,0-0.8-0.1-1.2-0.2s-0.7-0.3-0.9-0.5
			c-0.3-0.2-0.5-0.5-0.6-0.9c-0.1-0.3-0.2-0.8-0.2-1.2c0-0.4,0.1-0.8,0.3-1.1c0.2-0.4,0.5-0.7,1-1c0.5-0.3,1.1-0.6,1.9-0.8
			c0.8-0.2,1.8-0.3,2.9-0.3v-0.6c0-0.7-0.1-1.2-0.4-1.5c-0.3-0.3-0.7-0.5-1.3-0.5c-0.4,0-0.7,0-1,0.1c-0.3,0.1-0.5,0.2-0.7,0.3
			c-0.2,0.1-0.4,0.2-0.5,0.3c-0.2,0.1-0.3,0.1-0.5,0.1c-0.2,0-0.3,0-0.4-0.1c-0.1-0.1-0.2-0.2-0.3-0.3l-0.5-0.8
			c1.2-1.1,2.6-1.6,4.3-1.6c0.6,0,1.1,0.1,1.6,0.3c0.5,0.2,0.9,0.5,1.2,0.8s0.6,0.8,0.7,1.3s0.3,1,0.3,1.6V860z M1182.2,858.5
			c0.3,0,0.5,0,0.7-0.1c0.2,0,0.4-0.1,0.6-0.2c0.2-0.1,0.4-0.2,0.5-0.3s0.4-0.3,0.5-0.5v-1.7c-0.7,0-1.3,0-1.8,0.1s-0.9,0.2-1.2,0.3
			c-0.3,0.1-0.5,0.3-0.6,0.5c-0.1,0.2-0.2,0.4-0.2,0.6c0,0.4,0.1,0.7,0.4,0.9C1181.5,858.4,1181.8,858.5,1182.2,858.5z"/>
		<path class="st2" d="M1189.7,860v-10.3h1.5c0.3,0,0.5,0.1,0.6,0.5l0.2,0.8c0.2-0.2,0.4-0.4,0.7-0.6c0.2-0.2,0.5-0.3,0.7-0.5
			c0.3-0.1,0.5-0.2,0.8-0.3c0.3-0.1,0.6-0.1,1-0.1c0.6,0,1.1,0.1,1.5,0.3c0.4,0.2,0.8,0.5,1.1,0.8s0.5,0.8,0.7,1.2
			c0.1,0.5,0.2,1,0.2,1.6v6.5h-2.5v-6.5c0-0.6-0.1-1.1-0.4-1.5c-0.3-0.3-0.7-0.5-1.3-0.5c-0.4,0-0.8,0.1-1.2,0.3
			c-0.4,0.2-0.7,0.5-1.1,0.8v7.4H1189.7z"/>
		<path class="st2" d="M1204.7,860.2c-0.9,0-1.6-0.3-2-0.8c-0.5-0.5-0.7-1.2-0.7-2.1v-5.7h-1c-0.1,0-0.2,0-0.3-0.1
			c-0.1-0.1-0.1-0.2-0.1-0.4v-1l1.6-0.3l0.5-2.8c0-0.1,0.1-0.2,0.2-0.3s0.2-0.1,0.4-0.1h1.3v3.2h2.7v1.8h-2.7v5.6
			c0,0.3,0.1,0.6,0.2,0.8c0.2,0.2,0.4,0.3,0.6,0.3c0.2,0,0.3,0,0.4-0.1c0.1,0,0.2-0.1,0.3-0.1s0.1-0.1,0.2-0.1
			c0.1,0,0.1-0.1,0.2-0.1c0.1,0,0.1,0,0.2,0.1c0,0,0.1,0.1,0.1,0.2l0.7,1.2c-0.4,0.3-0.8,0.5-1.2,0.7
			C1205.7,860.1,1205.2,860.2,1204.7,860.2z"/>
		<path class="st2" d="M1212.4,846.8c0,0.2,0,0.4-0.1,0.6c-0.1,0.2-0.2,0.4-0.3,0.5c-0.1,0.1-0.3,0.3-0.5,0.3
			c-0.2,0.1-0.4,0.1-0.6,0.1c-0.2,0-0.4,0-0.6-0.1c-0.2-0.1-0.4-0.2-0.5-0.3c-0.1-0.1-0.3-0.3-0.3-0.5c-0.1-0.2-0.1-0.4-0.1-0.6
			c0-0.2,0-0.4,0.1-0.6c0.1-0.2,0.2-0.4,0.3-0.5c0.1-0.1,0.3-0.3,0.5-0.3c0.2-0.1,0.4-0.1,0.6-0.1c0.2,0,0.4,0,0.6,0.1
			c0.2,0.1,0.4,0.2,0.5,0.3c0.1,0.1,0.3,0.3,0.3,0.5S1212.4,846.5,1212.4,846.8z M1212,849.7V860h-2.5v-10.3H1212z"/>
		<path class="st2" d="M1222.3,860c-0.3,0-0.5-0.2-0.6-0.5l-0.2-1c-0.2,0.2-0.4,0.5-0.7,0.7s-0.5,0.4-0.8,0.5s-0.6,0.2-0.9,0.3
			c-0.3,0.1-0.6,0.1-1,0.1c-0.6,0-1.1-0.1-1.5-0.4c-0.5-0.2-0.9-0.6-1.2-1c-0.3-0.4-0.6-1-0.8-1.6c-0.2-0.7-0.3-1.4-0.3-2.2
			c0-0.8,0.1-1.5,0.3-2.1s0.5-1.2,0.9-1.7c0.4-0.5,0.9-0.9,1.4-1.1c0.5-0.3,1.1-0.4,1.8-0.4c0.6,0,1.1,0.1,1.5,0.3
			c0.4,0.2,0.8,0.4,1.1,0.7v-5.4h2.5V860H1222.3z M1219,858.2c0.5,0,1-0.1,1.3-0.3c0.4-0.2,0.7-0.5,1-0.9v-4.6
			c-0.3-0.3-0.6-0.6-0.9-0.7c-0.3-0.1-0.7-0.2-1.1-0.2c-0.4,0-0.7,0.1-1,0.2c-0.3,0.1-0.6,0.4-0.8,0.6s-0.4,0.6-0.5,1.1
			c-0.1,0.4-0.2,1-0.2,1.5c0,0.6,0,1.1,0.1,1.5c0.1,0.4,0.2,0.8,0.4,1c0.2,0.3,0.4,0.5,0.7,0.6
			C1218.4,858.1,1218.7,858.2,1219,858.2z"/>
		<path class="st2" d="M1231.1,849.6c0.8,0,1.5,0.1,2.1,0.4c0.6,0.2,1.2,0.6,1.6,1s0.8,1,1,1.7c0.2,0.7,0.4,1.4,0.4,2.2
			c0,0.8-0.1,1.5-0.4,2.2c-0.2,0.7-0.6,1.2-1,1.7s-1,0.8-1.6,1.1c-0.6,0.2-1.3,0.4-2.1,0.4c-0.8,0-1.5-0.1-2.1-0.4
			c-0.6-0.2-1.2-0.6-1.6-1.1s-0.8-1-1-1.7c-0.2-0.7-0.4-1.4-0.4-2.2c0-0.8,0.1-1.5,0.4-2.2c0.2-0.7,0.6-1.2,1-1.7s1-0.8,1.6-1
			C1229.7,849.7,1230.4,849.6,1231.1,849.6z M1231.1,858.3c0.9,0,1.5-0.3,1.9-0.9c0.4-0.6,0.6-1.4,0.6-2.5s-0.2-2-0.6-2.5
			c-0.4-0.6-1-0.9-1.9-0.9c-0.9,0-1.5,0.3-1.9,0.9c-0.4,0.6-0.6,1.4-0.6,2.5c0,1.1,0.2,1.9,0.6,2.5
			C1229.6,858,1230.3,858.3,1231.1,858.3z"/>
		<path class="st2" d="M1242.6,863.3v-13.6h1.5c0.2,0,0.3,0,0.4,0.1c0.1,0.1,0.2,0.2,0.2,0.3l0.2,0.9c0.4-0.5,0.9-0.9,1.4-1.1
			c0.5-0.3,1.2-0.4,1.9-0.4c0.6,0,1.1,0.1,1.5,0.4s0.9,0.6,1.2,1s0.6,1,0.8,1.6c0.2,0.7,0.3,1.4,0.3,2.2c0,0.8-0.1,1.5-0.3,2.1
			s-0.5,1.2-0.9,1.7c-0.4,0.5-0.8,0.9-1.4,1.1c-0.5,0.3-1.2,0.4-1.8,0.4c-0.6,0-1.1-0.1-1.5-0.3s-0.8-0.4-1.1-0.7v4.2H1242.6z
			 M1247.4,851.5c-0.5,0-1,0.1-1.3,0.3c-0.4,0.2-0.7,0.5-1,0.9v4.6c0.3,0.3,0.6,0.6,0.9,0.7s0.7,0.2,1.1,0.2c0.4,0,0.7-0.1,1-0.2
			c0.3-0.1,0.6-0.4,0.8-0.6c0.2-0.3,0.4-0.6,0.5-1.1s0.2-1,0.2-1.5c0-0.6,0-1.1-0.1-1.5c-0.1-0.4-0.2-0.8-0.4-1
			c-0.2-0.3-0.4-0.5-0.7-0.6C1248,851.6,1247.7,851.5,1247.4,851.5z"/>
		<path class="st2" d="M1258.5,849.6c0.8,0,1.5,0.1,2.1,0.4c0.6,0.2,1.2,0.6,1.6,1s0.8,1,1,1.7c0.2,0.7,0.4,1.4,0.4,2.2
			c0,0.8-0.1,1.5-0.4,2.2c-0.2,0.7-0.6,1.2-1,1.7s-1,0.8-1.6,1.1c-0.6,0.2-1.3,0.4-2.1,0.4c-0.8,0-1.5-0.1-2.1-0.4
			c-0.6-0.2-1.2-0.6-1.6-1.1s-0.8-1-1-1.7c-0.2-0.7-0.4-1.4-0.4-2.2c0-0.8,0.1-1.5,0.4-2.2c0.2-0.7,0.6-1.2,1-1.7s1-0.8,1.6-1
			C1257.1,849.7,1257.8,849.6,1258.5,849.6z M1258.5,858.3c0.9,0,1.5-0.3,1.9-0.9c0.4-0.6,0.6-1.4,0.6-2.5s-0.2-2-0.6-2.5
			s-1-0.9-1.9-0.9c-0.9,0-1.5,0.3-1.9,0.9c-0.4,0.6-0.6,1.4-0.6,2.5c0,1.1,0.2,1.9,0.6,2.5C1257,858,1257.7,858.3,1258.5,858.3z"/>
		<path class="st2" d="M1265.8,860v-10.3h1.5c0.3,0,0.4,0,0.5,0.1c0.1,0.1,0.2,0.3,0.2,0.5l0.2,1.2c0.4-0.6,0.8-1.1,1.3-1.5
			c0.5-0.4,1-0.5,1.7-0.5c0.5,0,0.9,0.1,1.3,0.4l-0.3,1.8c0,0.1-0.1,0.2-0.1,0.3s-0.2,0.1-0.3,0.1c-0.1,0-0.2,0-0.4-0.1
			c-0.2,0-0.4-0.1-0.7-0.1c-0.5,0-1,0.1-1.3,0.4c-0.4,0.3-0.7,0.7-0.9,1.2v6.4H1265.8z"/>
		<path class="st2" d="M1274.1,851.5c0-0.2,0-0.4,0.1-0.6c0.1-0.2,0.2-0.3,0.3-0.5c0.1-0.1,0.3-0.2,0.5-0.3s0.4-0.1,0.6-0.1
			c0.2,0,0.4,0,0.6,0.1s0.3,0.2,0.5,0.3c0.1,0.1,0.2,0.3,0.3,0.5s0.1,0.4,0.1,0.6c0,0.2,0,0.4-0.1,0.6c-0.1,0.2-0.2,0.3-0.3,0.5
			c-0.1,0.1-0.3,0.2-0.5,0.3c-0.2,0.1-0.4,0.1-0.6,0.1c-0.2,0-0.4,0-0.6-0.1c-0.2-0.1-0.3-0.2-0.5-0.3c-0.1-0.1-0.2-0.3-0.3-0.5
			C1274.1,851.9,1274.1,851.7,1274.1,851.5z M1274.1,858.6c0-0.2,0-0.4,0.1-0.6c0.1-0.2,0.2-0.3,0.3-0.5c0.1-0.1,0.3-0.2,0.5-0.3
			s0.4-0.1,0.6-0.1c0.2,0,0.4,0,0.6,0.1s0.3,0.2,0.5,0.3c0.1,0.1,0.2,0.3,0.3,0.5s0.1,0.4,0.1,0.6c0,0.2,0,0.4-0.1,0.6
			c-0.1,0.2-0.2,0.3-0.3,0.5c-0.1,0.1-0.3,0.2-0.5,0.3c-0.2,0.1-0.4,0.1-0.6,0.1c-0.2,0-0.4,0-0.6-0.1c-0.2-0.1-0.3-0.2-0.5-0.3
			c-0.1-0.1-0.2-0.3-0.3-0.5C1274.1,859.1,1274.1,858.9,1274.1,858.6z"/>
	</g>
</g>
</svg>
