<svg xmlns="http://www.w3.org/2000/svg" width="47.301" height="43.996" viewBox="0 0 47.301 43.996">
  <path id="Caminho_15" data-name="Caminho 15" d="M51.618,34.175c-.038-.029-3.524-2.755-4.606-4.7a4.614,4.614,0,0,0,.76-.173,6.628,6.628,0,0,0,2.89-2.022l.241-.305-.251-.3A6.166,6.166,0,0,0,46.067,24.2a7.7,7.7,0,0,0-4.949,2.021q-.248-1.6-.636-3.114c-2.037-7.972-6.851-11.958-12.827-14.02a13.382,13.382,0,0,0-8.846,0c-5.976,2.062-10.79,6.049-12.828,14.02A33.447,33.447,0,0,0,5.2,27.243c-.011.081-.022.161-.032.243A22.642,22.642,0,0,0,10.719,45.4,20.158,20.158,0,0,0,14.9,49.131,18,18,0,0,0,18.054,50.9a10.888,10.888,0,0,0,3.08,1.2l.088.031h.068a9.507,9.507,0,0,0,3.917,0h.033l.044-.015a10.9,10.9,0,0,0,3.245-1.264,18.051,18.051,0,0,0,3.036-1.72A20.168,20.168,0,0,0,35.743,45.4a22.737,22.737,0,0,0,5.7-14.133,11.567,11.567,0,0,0,.888,1.04.992.992,0,0,0,.986.347.705.705,0,0,0,.336-.232,6.146,6.146,0,0,0,7.485,2.7c.115-.036.231-.075.348-.119l.813-.294ZM12.225,18.5H34.238c2.743,0,2.743,3.23,3.238,6.206H35.6a6.627,6.627,0,0,0-1.489-.694c-3.475-1.108-7.072,1.9-11.064,1.914-3.84.017-7.654-2.716-11.505-1.742a4.489,4.489,0,0,0-1.237.522H8.987C9.482,21.73,9.482,18.5,12.225,18.5ZM33.362,30a4.249,4.249,0,0,1-7.226.312A4.5,4.5,0,0,1,33.362,30Zm-13.1.259c-2.091,2.582-5.018,2.511-7.308-.1C14.7,27.718,18.186,27.716,20.258,30.259Zm13.418,12.9c-.075.088-.15.174-.227.261a18.315,18.315,0,0,1-8.11,5.292,5.394,5.394,0,0,1-.9.213,9.333,9.333,0,0,1-1.03.084c-.059,0-.118,0-.177,0s-.118,0-.177,0a9.463,9.463,0,0,1-1.03-.084,5.512,5.512,0,0,1-.9-.213,18.323,18.323,0,0,1-8.11-5.293c-.076-.086-.151-.172-.225-.26a21.3,21.3,0,0,1-4.251-8.836c-.022-.09.087-.211.158-.368h.335A9.423,9.423,0,0,0,16,38.053a4.232,4.232,0,0,0,4.291-1.719c2.578-3.31,3.171-3.312,5.766-.02,1.226,1.555,2.7,2.278,4.45,1.658a17.8,17.8,0,0,0,5.853-2.919,6.807,6.807,0,0,0,.985-1.1h.427c.071.157.179.278.158.368A21.286,21.286,0,0,1,33.677,43.16Z" transform="translate(-4.999 -8.337)" fill="#fdc300"/>
</svg>
