<svg xmlns="http://www.w3.org/2000/svg" width="20.957" height="20.957" viewBox="0 0 20.957 20.957"><defs><style>.a{fill:none;}.b{fill:#dcdcdc;}</style></defs><path class="a" d="M0,0H20.957V20.957H0Z"/><path class="b" d="M14.1,10.239a2.62,2.62,0,1,0-2.62-2.62A2.609,2.609,0,0,0,14.1,10.239Zm-6.986,0a2.62,2.62,0,1,0-2.62-2.62A2.609,2.609,0,0,0,7.112,10.239Zm0,1.746C5.078,11.986,1,13.007,1,15.042v2.183H13.225V15.042C13.225,13.007,9.147,11.986,7.112,11.986Zm6.986,0c-.253,0-.541.017-.847.044a3.685,3.685,0,0,1,1.72,3.013v2.183h5.239V15.042C20.211,13.007,16.133,11.986,14.1,11.986Z" transform="translate(-0.127 -0.634)"/></svg>