<svg id="Grupo_122" data-name="Grupo 122" xmlns="http://www.w3.org/2000/svg" width="37.326" height="37.224" viewBox="0 0 37.326 37.224">
  <g id="Grupo_119" data-name="Grupo 119" transform="translate(11.944 0)">
    <path id="Caminho_24" data-name="Caminho 24" d="M47.752,15.258a1.713,1.713,0,0,0-1.712-1.712H44.277V5.105a18.912,18.912,0,0,0-4.041.006v8.435H38.528a1.713,1.713,0,0,0-1.712,1.712V20.87H47.752Z" transform="translate(-35.565 -5)" fill="#fdc300"/>
    <path id="Caminho_25" data-name="Caminho 25" d="M46.211,45.574H34.829A1.029,1.029,0,0,0,33.8,46.6v1.987a1.026,1.026,0,0,0,1.029,1.026h1.649v4.993a.951.951,0,1,0,1.9,0V49.615H42.66v4.993a.95.95,0,1,0,1.9,0V49.615h1.651a1.026,1.026,0,0,0,1.027-1.026V46.6A1.029,1.029,0,0,0,46.211,45.574Z" transform="translate(-33.8 -28.747)" fill="#fdc300"/>
  </g>
  <g id="Grupo_121" data-name="Grupo 121" transform="translate(0 0.71)">
    <g id="Grupo_120" data-name="Grupo 120">
      <path id="Caminho_26" data-name="Caminho 26" d="M29.133,6.713v4.82a14.13,14.13,0,1,1-10.94,0V6.713a18.662,18.662,0,1,0,10.938,0Z" transform="translate(-5 -6.713)" fill="#fdc300"/>
    </g>
  </g>
</svg>
