<svg xmlns="http://www.w3.org/2000/svg" width="44.337" height="44.5" viewBox="0 0 44.337 44.5">
  <g id="Grupo_123" data-name="Grupo 123" transform="translate(-9.122 -9.135)">
    <path id="Caminho_27" data-name="Caminho 27" d="M46.158,19.562a9.04,9.04,0,0,0,.085-1.238,9.185,9.185,0,0,0-17.284-4.337,7.4,7.4,0,0,0-10.2,3.748c-.152-.009-.3-.013-.448-.013a9.19,9.19,0,1,0,0,18.38H45.552a1.032,1.032,0,0,0,.264-.035,8.3,8.3,0,0,0,.341-16.506Zm-.81,14.372H18.312a7.021,7.021,0,1,1,1.035-13.956,1.084,1.084,0,0,0,1.2-.785,5.251,5.251,0,0,1,5.047-3.847,5.193,5.193,0,0,1,3.183,1.085,1.084,1.084,0,0,0,1.68-.491,7.015,7.015,0,0,1,13.33,4.36,1.083,1.083,0,0,0,.189.975,1.049,1.049,0,0,0,.908.413l.165-.01c.036,0,.073-.005.11-.005a6.126,6.126,0,0,1,.333,12.244A1,1,0,0,0,45.347,33.934Z" fill="#fdc300"/>
    <path id="Caminho_28" data-name="Caminho 28" d="M37.122,60.955a1.086,1.086,0,0,0-1.511.266l-6.171,8.812a1.088,1.088,0,0,0,.266,1.51,1.084,1.084,0,0,0,1.511-.266l6.171-8.813A1.087,1.087,0,0,0,37.122,60.955Z" transform="translate(-9.21 -23.628)" fill="#fdc300"/>
    <path id="Caminho_29" data-name="Caminho 29" d="M50.778,61.656a1.077,1.077,0,0,0-.446-.7,1.089,1.089,0,0,0-1.511.266l-3.107,4.439A1.084,1.084,0,1,0,47.49,66.9L50.6,62.467A1.077,1.077,0,0,0,50.778,61.656Zm-.758-.256Z" transform="translate(-16.658 -23.629)" fill="#fdc300"/>
    <path id="Caminho_30" data-name="Caminho 30" d="M21.2,71.606h0a1.084,1.084,0,0,0-1.51.267l-3.107,4.439a1.086,1.086,0,0,0,.266,1.51,1.083,1.083,0,0,0,1.511-.266l3.107-4.438A1.088,1.088,0,0,0,21.2,71.606Z" transform="translate(-3.324 -28.503)" fill="#fdc300"/>
    <path id="Caminho_31" data-name="Caminho 31" d="M70.7,60.956a1.086,1.086,0,0,0-1.512.266l-4.157,5.937A1.085,1.085,0,0,0,66.808,68.4l4.157-5.937A1.087,1.087,0,0,0,70.7,60.956Z" transform="translate(-25.499 -23.628)" fill="#fdc300"/>
    <path id="Caminho_32" data-name="Caminho 32" d="M26.027,81.581a1.084,1.084,0,0,0-1.511.265L22.309,85a1.085,1.085,0,1,0,1.778,1.243l2.206-3.15A1.085,1.085,0,0,0,26.027,81.581Z" transform="translate(-5.947 -33.068)" fill="#fdc300"/>
    <path id="Caminho_33" data-name="Caminho 33" d="M41.964,74.643a1.084,1.084,0,0,0-1.511.266l-1.946,2.779a1.084,1.084,0,1,0,1.777,1.244l1.946-2.779A1.087,1.087,0,0,0,41.964,74.643Z" transform="translate(-13.359 -29.892)" fill="#fdc300"/>
    <path id="Caminho_34" data-name="Caminho 34" d="M25.465,66.217A3.118,3.118,0,1,0,22.347,63.1,3.121,3.121,0,0,0,25.465,66.217Zm0-2.169a.949.949,0,1,1,.949-.949A.95.95,0,0,1,25.465,64.047Z" transform="translate(-6.053 -23.271)" fill="#fdc300"/>
    <path id="Caminho_35" data-name="Caminho 35" d="M59.38,66.217A3.118,3.118,0,1,0,56.262,63.1,3.121,3.121,0,0,0,59.38,66.217Zm0-2.169a.949.949,0,1,1,.949-.949A.95.95,0,0,1,59.38,64.047Z" transform="translate(-21.576 -23.271)" fill="#fdc300"/>
    <path id="Caminho_36" data-name="Caminho 36" d="M53.368,74.838a3.66,3.66,0,1,0,3.66,3.66A3.664,3.664,0,0,0,53.368,74.838Zm0,2.169A1.491,1.491,0,1,1,51.876,78.5,1.492,1.492,0,0,1,53.368,77.007Z" transform="translate(-18.576 -30.072)" fill="#fdc300"/>
  </g>
</svg>
