<svg xmlns="http://www.w3.org/2000/svg" width="206" height="48.313" viewBox="0 0 206 48.313">
  <g id="Agrupar_560" data-name="Agrupar 560" transform="translate(-758.441 -492.729)">
    <g id="Agrupar_434" data-name="Agrupar 434" transform="translate(758.441 492.729)">
      <g id="Agrupar_433" data-name="Agrupar 433">
        <g id="Agrupar_432" data-name="Agrupar 432">
          <g id="Agrupar_430" data-name="Agrupar 430" transform="translate(26.445)">
            <g id="Agrupar_428" data-name="Agrupar 428">
              <path id="Caminho_152" data-name="Caminho 152" d="M813.822,537.132q-3.531-3.3-3.632-9.618v-1.565q.2-6.009,3.735-9.388t9.54-3.385a14.442,14.442,0,0,1,7.346,1.742,11.042,11.042,0,0,1,4.495,4.8,15.669,15.669,0,0,1,1.487,6.94v1.261a1.291,1.291,0,0,1-1.31,1.315h-16v.3a6.336,6.336,0,0,0,1.06,3.661,3.339,3.339,0,0,0,2.876,1.384,3.493,3.493,0,0,0,1.943-.477,6.679,6.679,0,0,0,1.389-1.237,2.705,2.705,0,0,1,.731-.633,2.312,2.312,0,0,1,.883-.127h6.615a1.183,1.183,0,0,1,.784.28.857.857,0,0,1,.325.682,5.144,5.144,0,0,1-1.488,3.077,11.824,11.824,0,0,1-4.343,3.032,16.616,16.616,0,0,1-6.738,1.261Q817.355,540.439,813.822,537.132ZM827.5,524.083v-.1a5.918,5.918,0,0,0-1.06-3.76,3.582,3.582,0,0,0-2.979-1.34,3.505,3.505,0,0,0-2.95,1.34,6.016,6.016,0,0,0-1.035,3.76v.1Z" transform="translate(-810.19 -502.726)" fill="#fff"/>
              <path id="Caminho_153" data-name="Caminho 153" d="M871.476,549.474a10.963,10.963,0,0,1-4.339-3.607,6.741,6.741,0,0,1-1.315-3.41,1.1,1.1,0,0,1,.4-.855,1.346,1.346,0,0,1,.912-.357H873.9a1.316,1.316,0,0,1,.809.23,2,2,0,0,1,.555.781A4.536,4.536,0,0,0,876.575,544a4.082,4.082,0,0,0,2.526.633,4.332,4.332,0,0,0,3.23-1.085,5.064,5.064,0,0,0,1.06-3.611v-3.381a9.694,9.694,0,0,1-7.317,2.777q-5.1,0-7.8-2.954t-2.954-8.71l-.05-1.364q0-6.157,2.753-9.643t8.053-3.484a10.011,10.011,0,0,1,4.54.986,9.568,9.568,0,0,1,3.283,2.65v-1.816a1.337,1.337,0,0,1,.353-.937,1.193,1.193,0,0,1,.908-.378h6.163a1.292,1.292,0,0,1,1.311,1.315v24.183q0,5.806-3.484,8.833t-9.795,3.028A17.17,17.17,0,0,1,871.476,549.474Zm10.7-18.275a5.84,5.84,0,0,0,1.212-3.332,13.726,13.726,0,0,0,.053-1.512,12.9,12.9,0,0,0-.053-1.516,5.789,5.789,0,0,0-1.212-3.357,3.94,3.94,0,0,0-3.229-1.29,3.777,3.777,0,0,0-3.229,1.339,6.533,6.533,0,0,0-1.114,3.71l-.049,1.114a9,9,0,0,0,.957,4.515,3.64,3.64,0,0,0,3.435,1.643A3.9,3.9,0,0,0,882.179,531.2Z" transform="translate(-837.122 -502.726)" fill="#fff"/>
              <path id="Caminho_154" data-name="Caminho 154" d="M928.413,537.944q-2.731-2.976-2.728-8.431V515.425a1.2,1.2,0,0,1,.378-.908,1.263,1.263,0,0,1,.883-.354h6.714a1.329,1.329,0,0,1,.937.354,1.2,1.2,0,0,1,.378.908v13.784q0,4.7,4.19,4.7a4.067,4.067,0,0,0,3.156-1.237,4.928,4.928,0,0,0,1.134-3.459V515.425a1.186,1.186,0,0,1,.382-.908,1.319,1.319,0,0,1,.933-.354h6.664a1.21,1.21,0,0,1,1.261,1.262v23.731a1.263,1.263,0,0,1-.353.883,1.189,1.189,0,0,1-.908.378h-6.159a1.328,1.328,0,0,1-.937-.353,1.191,1.191,0,0,1-.378-.908v-1.919q-2.626,3.686-8.381,3.686A9.253,9.253,0,0,1,928.413,537.944Z" transform="translate(-866.665 -503.21)" fill="#fff"/>
              <path id="Caminho_155" data-name="Caminho 155" d="M986.178,540.039a1.208,1.208,0,0,1-.382-.883V515.478a1.336,1.336,0,0,1,.354-.937,1.2,1.2,0,0,1,.912-.378h6.159a1.291,1.291,0,0,1,1.31,1.315V517.4a9.646,9.646,0,0,1,3.308-2.4,10.367,10.367,0,0,1,4.215-.834h2.272a1.21,1.21,0,0,1,1.261,1.262v5.505a1.246,1.246,0,0,1-.353.884,1.19,1.19,0,0,1-.908.378h-5.1a4.148,4.148,0,0,0-3.106,1.109,4.306,4.306,0,0,0-1.085,3.131v12.724a1.193,1.193,0,0,1-.378.908,1.32,1.32,0,0,1-.933.353h-6.664A1.213,1.213,0,0,1,986.178,540.039Z" transform="translate(-896.058 -503.21)" fill="#fff"/>
              <path id="Caminho_156" data-name="Caminho 156" d="M1144.522,499.668a1.318,1.318,0,0,1-.353-.933v-4.7a1.259,1.259,0,0,1,.382-.933,1.2,1.2,0,0,1,.883-.378h6.311a1.255,1.255,0,0,1,.932.378,1.271,1.271,0,0,1,.378.933v4.7a1.3,1.3,0,0,1-1.31,1.315h-6.311A1.187,1.187,0,0,1,1144.522,499.668Zm.029,29.89a1.208,1.208,0,0,1-.382-.883V504.944a1.185,1.185,0,0,1,.382-.908,1.255,1.255,0,0,1,.883-.354h6.311a1.319,1.319,0,0,1,.932.354,1.2,1.2,0,0,1,.378.908v23.731a1.191,1.191,0,0,1-.378.908,1.319,1.319,0,0,1-.932.353h-6.311A1.211,1.211,0,0,1,1144.551,529.558Z" transform="translate(-973.5 -492.729)" fill="#fdc300"/>
            </g>
            <g id="Agrupar_429" data-name="Agrupar 429" transform="translate(109.761 10.448)">
              <circle id="Elipse_43" data-name="Elipse 43" cx="4.169" cy="4.169" r="4.169" transform="translate(23.769 18.96)" fill="#fdc300"/>
              <path id="Caminho_157" data-name="Caminho 157" d="M1047.17,536.3a5.71,5.71,0,0,1,1.85-4.2h-5.868a2.314,2.314,0,0,0-.883.127,2.713,2.713,0,0,0-.731.633,6.667,6.667,0,0,1-1.389,1.237,3.492,3.492,0,0,1-1.943.477,3.338,3.338,0,0,1-2.876-1.384,6.339,6.339,0,0,1-1.06-3.661v-.3h16a1.292,1.292,0,0,0,1.311-1.315v-1.261a15.669,15.669,0,0,0-1.488-6.94,11.039,11.039,0,0,0-4.495-4.8,14.442,14.442,0,0,0-7.346-1.742q-6.009,0-9.54,3.385t-3.735,9.388v1.565q.1,6.311,3.632,9.618t9.7,3.307a16.614,16.614,0,0,0,6.738-1.261,14.919,14.919,0,0,0,2.368-1.31A5.671,5.671,0,0,1,1047.17,536.3Zm-12.9-12.322a6.016,6.016,0,0,1,1.035-3.76,3.505,3.505,0,0,1,2.95-1.34,3.583,3.583,0,0,1,2.979,1.34,5.915,5.915,0,0,1,1.06,3.76v.1h-8.024Z" transform="translate(-1024.979 -513.174)" fill="#fff"/>
              <path id="Caminho_158" data-name="Caminho 158" d="M1109.525,515.927q-3.032-2.749-9.29-2.753a16.055,16.055,0,0,0-6.615,1.212,10.308,10.308,0,0,0-3.989,2.905,5.524,5.524,0,0,0-1.364,3.052.91.91,0,0,0,.279.785,1.134,1.134,0,0,0,.834.329h5.855a.59.59,0,0,0,.505-.353,6.243,6.243,0,0,0,1.163-.809,9,9,0,0,1,1.537-1.061,3.679,3.679,0,0,1,1.692-.353,3.3,3.3,0,0,1,2.576.859,4.051,4.051,0,0,1,.756,2.724v.608l-6.262.957a17.639,17.639,0,0,0-7.852,2.954,6.658,6.658,0,0,0-2.769,4.83,5.624,5.624,0,0,1,2.061,5.734,8.594,8.594,0,0,0,2.528,1.857,11.27,11.27,0,0,0,4.873,1.035,10.358,10.358,0,0,0,4.692-.986,8.1,8.1,0,0,0,3.082-2.547v1.767a1.292,1.292,0,0,0,1.261,1.261h6.213a1.2,1.2,0,0,0,.908-.378,1.264,1.264,0,0,0,.353-.883v-15.3A9.576,9.576,0,0,0,1109.525,515.927Zm-5.958,12.848a5.949,5.949,0,0,1-1.389,4.244,4.768,4.768,0,0,1-3.611,1.463,4.079,4.079,0,0,1-2.449-.707,2.194,2.194,0,0,1-.986-1.869q0-2.218,4.245-3.028l4.191-.706Z" transform="translate(-1055.102 -513.174)" fill="#fdc300"/>
            </g>
          </g>
          <g id="Agrupar_431" data-name="Agrupar 431" transform="translate(0 10.493)">
            <path id="Caminho_159" data-name="Caminho 159" d="M763.893,539.365a10.418,10.418,0,0,1-4.117-2.777,4.8,4.8,0,0,1-1.335-2.925,1.047,1.047,0,0,1,.378-.834,1.245,1.245,0,0,1,.834-.329h6.106a.7.7,0,0,1,.505.2c.571.37.891.592.961.658a9.894,9.894,0,0,0,1.792,1.084,4.746,4.746,0,0,0,1.992.378,4.305,4.305,0,0,0,2.248-.53,1.652,1.652,0,0,0,.883-1.488,1.833,1.833,0,0,0-.481-1.315,4.889,4.889,0,0,0-1.816-.982,28.228,28.228,0,0,0-4.063-.986q-8.733-1.768-8.735-8.077a6.784,6.784,0,0,1,1.339-3.965,9.342,9.342,0,0,1,3.936-3.053,15.257,15.257,0,0,1,6.237-1.162,16.419,16.419,0,0,1,6.385,1.138,11.266,11.266,0,0,1,4.117,2.724,4.615,4.615,0,0,1,1.413,2.905,1.167,1.167,0,0,1-.329.81,1.046,1.046,0,0,1-.785.353h-5.551a1.1,1.1,0,0,1-.707-.205,7.624,7.624,0,0,1-1.212-.756,13.951,13.951,0,0,0-1.59-.933,4.045,4.045,0,0,0-1.742-.329,3.107,3.107,0,0,0-1.969.555,1.723,1.723,0,0,0-.71,1.414,1.778,1.778,0,0,0,.431,1.237,4.331,4.331,0,0,0,1.767.937,32.139,32.139,0,0,0,4.064.957q4.949.857,7.194,3.053a7.042,7.042,0,0,1-1.109,11.159q-3.359,2.249-9.417,2.248A17.92,17.92,0,0,1,763.893,539.365Z" transform="translate(-758.441 -513.263)" fill="#fff"/>
          </g>
        </g>
      </g>
    </g>
  </g>
</svg>
