<svg id="Share" xmlns="http://www.w3.org/2000/svg" width="1232" height="1232" viewBox="0 0 1232 1232">
  <path id="path" d="M0,0H1232V1232H0Z" fill="none" fill-rule="evenodd"/>
  <path id="ic_share" d="M773,727.676c-39.013,0-73.92,15.462-100.613,39.685L306.38,553.472c2.567-11.854,4.62-23.708,4.62-36.078s-2.053-24.224-4.62-36.078L668.28,269.49C696,295.26,732.447,311.237,773,311.237c85.213,0,154-69.063,154-154.618S858.213,2,773,2,619,71.063,619,156.618c0,12.369,2.053,24.224,4.62,36.078L261.72,404.523C234,378.754,197.553,362.776,157,362.776c-85.213,0-154,69.063-154,154.618S71.787,672.013,157,672.013c40.553,0,77-15.977,104.72-41.747l365.493,214.4a145.953,145.953,0,0,0-4.107,33.5c0,82.979,67.247,150.5,149.893,150.5s149.893-67.517,149.893-150.5S855.647,727.676,773,727.676Z" transform="translate(151 100.662)" fill="#fff" fill-rule="evenodd"/>
</svg>
