<svg id="Grupo_118" data-name="Grupo 118" xmlns="http://www.w3.org/2000/svg" width="52.556" height="38.801" viewBox="0 0 52.556 38.801">
  <g id="Grupo_116" data-name="Grupo 116" transform="translate(0 0)">
    <path id="Caminho_22" data-name="Caminho 22" d="M39.706,71.875,33.478,66.7l6.8-2.135-2.6-10.85,8.055,5.415,5.017-12.325,2.377,14.547,6.778-4.336-1.078,7.725h8.716l-7.571,5.9,1.32,1.233h10.19L68.339,68.86,78.4,61.024H63.123L64.73,49.514l-8.847,5.635-3.61-22.075L44,53.5,31.806,45.289l4.027,16.77-9.992,3.148L33.9,71.875Z" transform="translate(-25.841 -33.074)" fill="#fdc300"/>
  </g>
  <g id="Grupo_117" data-name="Grupo 117" transform="translate(13.271 23.791)">
    <path id="Caminho_23" data-name="Caminho 23" d="M61.944,80.176l-1.519-1.431,3.785-2.971H60.316l.7-4.952-5.3,3.389-1.475-9.045-2.6,6.449-5.017-3.389,1.54,6.493L43.743,76.1l4.885,4.071Z" transform="translate(-43.743 -65.166)" fill="#fdc300"/>
  </g>
</svg>
