<svg id="Agrupar_62" data-name="Agrupar 62" xmlns="http://www.w3.org/2000/svg" width="18.437" height="19.167" viewBox="0 0 18.437 19.167">
  <path id="Caminho_43" data-name="Caminho 43" d="M54.541,63.441a2.29,2.29,0,0,0,2.288,2.288H67.145a.458.458,0,0,0,.312-.123l5.375-5.024a.458.458,0,0,0,.145-.334V50.263a2.29,2.29,0,0,0-2.288-2.288H69.184V47.02a.458.458,0,0,0-.915,0v.955h-9.02V47.02a.458.458,0,1,0-.915,0v.955H56.829a2.29,2.29,0,0,0-2.288,2.288Zm.915,0V53.9H72.062v5.911H68.431a1.832,1.832,0,0,0-1.83,1.83v3.176H56.829A1.374,1.374,0,0,1,55.456,63.441Zm15.884-2.718L67.516,64.3v-2.66a.916.916,0,0,1,.915-.915ZM56.829,48.89h1.505v1.37a.458.458,0,0,0,.915,0V48.89h9.02v1.37a.458.458,0,0,0,.915,0V48.89H70.69a1.374,1.374,0,0,1,1.373,1.373v2.718H55.456V50.263A1.374,1.374,0,0,1,56.829,48.89Z" transform="translate(-54.541 -46.562)" fill="#fff"/>
</svg>
