<svg id="Group_157" data-name="Group 157" xmlns="http://www.w3.org/2000/svg" width="99.694" height="99.694" viewBox="0 0 99.694 99.694">
  <path id="Path_56" data-name="Path 56" d="M-1380.153,80.694a49.529,49.529,0,0,1-35.252-14.6A49.528,49.528,0,0,1-1430,30.847,49.528,49.528,0,0,1-1415.405-4.4,49.529,49.529,0,0,1-1380.153-19,49.529,49.529,0,0,1-1344.9-4.4a49.529,49.529,0,0,1,14.6,35.252A49.529,49.529,0,0,1-1344.9,66.1,49.529,49.529,0,0,1-1380.153,80.694Zm0-96.5a46.717,46.717,0,0,0-46.657,46.657A46.717,46.717,0,0,0-1380.153,77.5,46.717,46.717,0,0,0-1333.5,30.847,46.717,46.717,0,0,0-1380.153-15.81Z" transform="translate(1430 19)" fill="#fff"/>
  <g id="Group_156" data-name="Group 156" transform="translate(20.205 18.602)">
    <g id="Group_155" data-name="Group 155">
      <path id="Path_57" data-name="Path 57" d="M-1271.785,122.669v-8.852c0-3.645-5.575-6.254-13.082-7.719V104.31a2.724,2.724,0,0,0-2.737-2.771h-1v-1.4a36.364,36.364,0,0,0,8.377,1.265,3.2,3.2,0,0,0,3.426-2.9,3.2,3.2,0,0,0-3.426-2.9c-.074,0-5.412.184-8.377,1.245V95.687a.967.967,0,0,0-.967-.967h-3.214a2.4,2.4,0,0,0-2.409,2.377v4.442h-2.2V82.7a2.725,2.725,0,0,1,2.738-2.77,2.774,2.774,0,0,1,2.771,2.77v1.836a.967.967,0,0,0,.967.967h3.7a.967.967,0,0,0,.967-.967V82.7a8.419,8.419,0,0,0-8.409-8.41,8.4,8.4,0,0,0-8.376,8.41v18.835h-2.231V97.1a2.379,2.379,0,0,0-2.376-2.377h-3.212a.967.967,0,0,0-.967.967v1.165c-2.973-1.063-8.335-1.247-8.41-1.247a3.142,3.142,0,0,0-3.393,2.9,3.179,3.179,0,0,0,3.393,2.9c.075,0,5.437-.209,8.41-1.267v1.4h-1a2.773,2.773,0,0,0-2.769,2.771V106.1c-7.507,1.465-13.082,4.074-13.082,7.719h0v8.852h0c0,5.909,14.654,9.1,28.441,9.1s28.441-3.188,28.441-9.1Zm-42.85-14.8.017,0a.964.964,0,0,0,.354-.069,81.009,81.009,0,0,1,14.038-1.144,81.014,81.014,0,0,1,14.04,1.144.959.959,0,0,0,.353.069l.016,0c7.5,1.387,12.1,3.75,12.1,5.952,0,3.373-10.887,7.131-26.508,7.131s-26.506-3.758-26.506-7.131C-1326.732,111.616-1322.137,109.252-1314.635,107.866Z" transform="translate(1328.667 -74.295)" fill="#fff"/>
      <path id="Path_58" data-name="Path 58" d="M-1214.079,289.622a.968.968,0,0,0,.941-.74,8.235,8.235,0,0,1,3.879-.7,8.348,8.348,0,0,1,3.911.7.968.968,0,0,0,.941.74.967.967,0,0,0,.967-.967c0-2.293-4.848-2.41-5.819-2.41-2.669,0-5.786.631-5.786,2.41A.967.967,0,0,0-1214.079,289.622Z" transform="translate(1237.701 -243.985)" fill="#fff"/>
    </g>
    <path id="Path_59" data-name="Path 59" d="M-1138.363,135.848l-.8-.921-.768.92a1,1,0,0,0-.22.626,1,1,0,0,0,1,1,1,1,0,0,0,1-1A1,1,0,0,0-1138.363,135.848Z" transform="translate(1177.736 -122.838)" fill="#fff"/>
    <path id="Path_60" data-name="Path 60" d="M-1124.363,145.848l-.8-.921-.768.92a1,1,0,0,0-.22.626,1,1,0,0,0,1,1,1,1,0,0,0,1-1A1,1,0,0,0-1124.363,145.848Z" transform="translate(1166.527 -130.844)" fill="#fff"/>
    <path id="Path_61" data-name="Path 61" d="M-1134.363,159.848l-.8-.921-.768.92a1,1,0,0,0-.22.626,1,1,0,0,0,1,1,1,1,0,0,0,1-1A1,1,0,0,0-1134.363,159.848Z" transform="translate(1174.533 -142.052)" fill="#fff"/>
  </g>
</svg>
