<svg id="Agrupar_563" data-name="Agrupar 563" xmlns="http://www.w3.org/2000/svg" width="36" height="36" viewBox="0 0 36 36">
  <path id="Caminho_215" data-name="Caminho 215" d="M9.029,0H11a2.054,2.054,0,0,1,1.968,2.084V3.357H23.035V2.084A2.054,2.054,0,0,1,25,0h1.968a2.075,2.075,0,0,1,2.084,2.084V3.357H32.18A3.854,3.854,0,0,1,36,7.177v25A3.854,3.854,0,0,1,32.18,36H3.82A3.854,3.854,0,0,1,0,32.18v-25a3.854,3.854,0,0,1,3.82-3.82H6.945V2.084A2.075,2.075,0,0,1,9.029,0ZM29.055,5.672V7.756a2.054,2.054,0,0,1-2.084,1.968H25a2.028,2.028,0,0,1-1.968-1.968V5.672H12.965V7.756A2.028,2.028,0,0,1,11,9.723H9.029A2.054,2.054,0,0,1,6.945,7.756V5.672H3.82a1.459,1.459,0,0,0-1.5,1.5V11.46h31.37V7.177a1.532,1.532,0,0,0-1.5-1.5Zm4.63,8.1H2.315V32.18a1.532,1.532,0,0,0,1.5,1.5H32.18a1.532,1.532,0,0,0,1.5-1.5ZM26.74,2.315H25.35V7.408H26.74Zm-16.09,0H9.26V7.408H10.65Z" fill="#fdfdfd"/>
  <path id="Caminho_216" data-name="Caminho 216" d="M99.736,163.778l3.473,3.7L109.576,161l1.736,1.621-8.219,8.219L98,165.4Z" transform="translate(-86.656 -142.363)" fill="#fdfdfd"/>
</svg>
