<svg xmlns="http://www.w3.org/2000/svg" width="44" height="30" viewBox="0 0 44 30">
  <g id="Agrupar_560" data-name="Agrupar 560" transform="translate(446 260)">
    <path id="Caminho_214" data-name="Caminho 214" d="M9.5,20A3.515,3.515,0,0,0,6,23.5v23A3.515,3.515,0,0,0,9.5,50h9a1,1,0,1,0,0-2h-9A1.475,1.475,0,0,1,8,46.5v-19H48v19A1.475,1.475,0,0,1,46.5,48h-24a1,1,0,1,0,0,2h24A3.515,3.515,0,0,0,50,46.5v-23A3.515,3.515,0,0,0,46.5,20Zm0,2h37A1.475,1.475,0,0,1,48,23.5v2H8v-2A1.475,1.475,0,0,1,9.5,22Zm2.406,8.5a1,1,0,1,0,.093,2h5a1,1,0,1,0,0-2Zm9.5,0a1,1,0,1,0,.094,2h9a1,1,0,1,0,0-2ZM39,38.5a3.5,3.5,0,0,0,0,7,3.385,3.385,0,0,0,1.5-.39,3.385,3.385,0,0,0,1.5.39,3.5,3.5,0,0,0,0-7,3.37,3.37,0,0,0-1.5.39A3.37,3.37,0,0,0,39,38.5Zm0,2a1.422,1.422,0,0,1,.89.313,1.031,1.031,0,0,0,1.219,0A1.422,1.422,0,0,1,42,40.5a1.5,1.5,0,1,1,0,3,1.422,1.422,0,0,1-.89-.312,1.031,1.031,0,0,0-1.219,0A1.422,1.422,0,0,1,39,43.5a1.5,1.5,0,0,1,0-3Z" transform="translate(-452 -280)" fill="#fff"/>
  </g>
</svg>
