<svg xmlns="http://www.w3.org/2000/svg" width="40.889" height="43.516" viewBox="0 0 40.889 43.516">
  <g id="Grupo_115" data-name="Grupo 115" transform="translate(16)">
    <g id="Grupo_418" data-name="Grupo 418" transform="translate(-16)">
      <g id="Grupo_109" data-name="Grupo 109" transform="translate(0)">
        <path id="Caminho_16" data-name="Caminho 16" d="M51.2,52.116H11.888a.808.808,0,0,1-.788-.788V9.388a.808.808,0,0,1,.788-.788H51.2a.808.808,0,0,1,.788.788V51.38A.764.764,0,0,1,51.2,52.116ZM12.677,50.539H50.411V10.177H12.677Z" transform="translate(-11.1 -8.6)" fill="#fdc300"/>
      </g>
    </g>
    <g id="Grupo_114" data-name="Grupo 114" transform="translate(-13.057 2.575)">
      <g id="Grupo_110" data-name="Grupo 110">
        <path id="Caminho_17" data-name="Caminho 17" d="M32.624,31.894H17.488a.808.808,0,0,1-.788-.788V14.288a.808.808,0,0,1,.788-.788H32.624a.808.808,0,0,1,.788.788V31.106A.808.808,0,0,1,32.624,31.894Zm-14.3-1.577H31.889V15.077H18.329Z" transform="translate(-16.7 -13.5)" fill="#fdc300"/>
      </g>
      <g id="Grupo_111" data-name="Grupo 111" transform="translate(18.289 0.053)">
        <path id="Caminho_18" data-name="Caminho 18" d="M67.424,31.994H52.288a.808.808,0,0,1-.788-.788V14.388a.808.808,0,0,1,.788-.788H67.424a.808.808,0,0,1,.788.788V31.206A.847.847,0,0,1,67.424,31.994ZM53.077,30.418H66.636V15.177H53.077Z" transform="translate(-51.5 -13.6)" fill="#fdc300"/>
      </g>
      <g id="Grupo_112" data-name="Grupo 112" transform="translate(0 19.918)">
        <path id="Caminho_19" data-name="Caminho 19" d="M32.624,69.794H17.488a.808.808,0,0,1-.788-.788V52.188a.808.808,0,0,1,.788-.788H32.624a.808.808,0,0,1,.788.788V69.006A.808.808,0,0,1,32.624,69.794Zm-14.3-1.577H31.889V52.977H18.329Z" transform="translate(-16.7 -51.4)" fill="#fdc300"/>
      </g>
      <g id="Grupo_113" data-name="Grupo 113" transform="translate(18.289 19.971)">
        <path id="Caminho_20" data-name="Caminho 20" d="M67.424,69.894H52.288a.808.808,0,0,1-.788-.788V52.288a.808.808,0,0,1,.788-.788H67.424a.808.808,0,0,1,.788.788V69.106A.847.847,0,0,1,67.424,69.894ZM53.077,68.318H66.636V53.077H53.077Z" transform="translate(-51.5 -51.5)" fill="#fdc300"/>
      </g>
    </g>
  </g>
</svg>
